<svg width="24" height="24" fill="none" xmlns="http://www.w3.org/2000/svg"><defs><clipPath id="a"><path fill="#fff" fill-opacity="0" d="M0 0h24v24H0z"/></clipPath></defs><path d="M0 0h24v24H0z"/><g clip-path="url(#a)" fill="#F3BA2F"><path d="M7.33 10.08L12 5.42l4.66 4.66 2.71-2.71L12 0 4.62 7.37l2.71 2.71zM0 12l2.71-2.72 2.71 2.71-2.71 2.72L0 12zm7.33 1.91L12 18.57l4.66-4.66 2.71 2.71L12 24l-7.38-7.38 2.71-2.71zM18.57 12l2.71-2.72L24 12l-2.72 2.71L18.57 12z"/><path d="M14.75 11.99l-2.76-2.75-2.03 2.04-.23.23-.48.48h-.01l.01.01 2.74 2.75L14.75 12v-.01z"/></g></svg>