<svg width="24" height="23" fill="none" xmlns="http://www.w3.org/2000/svg"><path d="M23.63 14.04c-1.6 6.06-8.11 9.75-14.54 8.24C2.66 20.77-1.25 14.63.35 8.57 1.96 2.51 8.47-1.18 14.9.33c6.43 1.51 10.34 7.65 8.73 13.71z" fill="#F7931A"/><path d="M17.17 9.69c.15-1.52-1.1-2.33-2.78-2.88l.42-2.05-1.33-.31-.41 2-1.06-.24.41-2.01-1.33-.31-.42 2.05c-.28-.06-.57-.12-.84-.18v-.01L8 5.32l-.27 1.33s.98.22.96.23c.54.12.65.46.65.72l-.48 2.34c.04.01.09.02.14.04-.04-.01-.09-.02-.14-.03l-.67 3.27c-.06.16-.21.39-.58.3.01.02-.97-.23-.97-.23l-.57 1.43 1.73.41c.32.07.64.15.95.23l-.43 2.07 1.33.31.42-2.05c.36.09.71.18 1.06.26l-.42 2.04 1.32.31.43-2.07c2.25.41 3.92.24 4.52-1.68.48-1.55-.17-2.45-1.37-3.03.84-.19 1.45-.73 1.56-1.83zm-2.76 4c-.32 1.55-3.1.71-4 .5l.56-2.75c.9.21 3.77.63 3.44 2.25zm.17-4.03c-.28 1.41-2.6.7-3.35.52l.51-2.49c.75.17 3.15.5 2.84 1.97z" fill="#FFF"/></svg>