<svg width="15.833" height="18.333" fill="none" xmlns="http://www.w3.org/2000/svg"><path d="M10.83 0H1.66C.74 0 0 .75 0 1.66V12.5c0 .45.37.83.83.83a.834.834 0 00.83-.83v-10c0-.46.38-.84.83-.84h8.34c.22 0 .43-.09.59-.24.15-.16.24-.37.24-.59 0-.22-.09-.43-.24-.59a.824.824 0 00-.59-.24zm.49 3.82l4.02 4.02c.31.31.49.74.49 1.18v7.64c0 .92-.75 1.67-1.67 1.67H4.99c-.92 0-1.66-.75-1.66-1.67L3.34 5c0-.92.74-1.67 1.66-1.67h5.14c.44 0 .86.17 1.18.49zm-.49 5.34h3.75L9.99 4.58v3.75c0 .46.38.83.84.83z" fill="#FFF"/></svg>