<svg width="25" height="25" fill="none" xmlns="http://www.w3.org/2000/svg"><path d="M16.516 2.681c0 1.48-2.05 2.681-4.578 2.681-2.529 0-4.579-1.2-4.579-2.68C7.36 1.2 9.41 0 11.938 0c2.528 0 4.578 1.2 4.578 2.681zM5.558 9.074C6.822 6.869 6.813 4.48 5.539 3.74 4.265 3 2.207 4.186.942 6.39-.32 8.597-.313 10.985.961 11.726c1.274.74 3.332-.446 4.597-2.651zm17.374-2.682c1.263 2.205 1.257 4.593-.017 5.333-1.273.74-3.331-.447-4.596-2.652-1.263-2.204-1.255-4.592.018-5.332 1.273-.74 3.33.446 4.595 2.651zm.646 7.045c1.274.74 1.282 3.129.019 5.334-1.265 2.204-3.323 3.391-4.597 2.65-1.274-.74-1.282-3.128-.019-5.333 1.265-2.205 3.323-3.392 4.597-2.651zM5.558 16.49c1.264 2.205 1.256 4.593-.018 5.334-1.274.74-3.332-.446-4.597-2.651-1.263-2.205-1.256-4.593.019-5.334 1.274-.74 3.332.446 4.597 2.651zm10.958 5.334c0 1.48-2.05 2.68-4.578 2.68-2.529 0-4.579-1.2-4.579-2.68 0-1.481 2.05-2.681 4.579-2.681 2.528 0 4.578 1.2 4.578 2.68z" clip-rule="evenodd" fill="#E6007A" fill-rule="evenodd"/></svg>