<svg width="15" height="12" fill="none" xmlns="http://www.w3.org/2000/svg"><path d="M13.5 0H1.49C.67 0 0 .67 0 1.5v8.99C0 11.32.67 12 1.49 12H13.5c.82 0 1.5-.68 1.5-1.51V1.5c0-.83-.68-1.5-1.5-1.5zm-.3 3.18L7.89 6.5a.765.765 0 01-.79 0L1.79 3.18a.75.75 0 01-.19-.17.537.537 0 01-.1-.23.523.523 0 01-.02-.25c.02-.08.05-.16.09-.24a.671.671 0 01.41-.28.57.57 0 01.26 0c.08.01.16.04.23.09L7.5 5.25l5.02-3.15c.07-.05.15-.08.23-.09a.57.57 0 01.26 0 .671.671 0 01.41.28c.04.08.07.16.09.24.01.09.01.17-.01.25-.03.09-.06.17-.11.23a.75.75 0 01-.19.17z" fill="#757981"/></svg>