<svg width="24" height="23" fill="none" xmlns="http://www.w3.org/2000/svg"><path d="M21.83 4.37c-2.37-1.51-5.4-.61-6.77 2.01l-3.46 6.61c-1 1.91.29 2.58 1.73 3.53l3.32 2.12c1.13.72 2.56.29 3.21-.95l3.55-6.8c1.2-2.28.49-5.2-1.58-6.52z" fill="#EA4335"/><path d="M17.92 7.11L14.6 4.99c-1.84-1.13-2.87-1.2-3.63.12l-4.9 9.39c-1.37 2.62-.56 5.97 1.81 7.48 2.07 1.31 4.71.53 5.91-1.75l4.99-9.57c.66-1.24.27-2.83-.86-3.55z" fill="#FBBC04"/><path d="M18.56 2.29L16.23.8C13.65-.85 10.34.12 8.85 2.98l-4.44 8.51c-.66 1.25-.27 2.86.87 3.58l2.61 1.67c1.29.83 2.94.34 3.69-1.09l5.08-9.72c1.05-2.01 3.38-2.7 5.2-1.54l-3.3-2.1z" fill="#34A853"/><path d="M9.49 5.41l-2.53-1.6c-1.13-.72-2.56-.29-3.21.95L.72 10.54c-1.49 2.85-.61 6.49 1.98 8.13l1.92 1.22 2.33 1.49 1.01.64c-1.8-1.33-2.37-3.99-1.27-6.09l.79-1.49 2.87-5.49c.65-1.23.26-2.82-.86-3.54z" fill="#4285F4"/></svg>