<svg width="18" height="32" viewBox="0 0 23 40" fill="none" xmlns="http://www.w3.org/2000/svg"><path d="M0 20.09c.01-.02.03-.04.03-.05.01-.07 0-.13 0-.21.16.05.32.1.47.14l1.57.48c.39.11.78.24 1.17.35.57.17 1.15.33 1.72.5l1.51.42c.44.12.88.25 1.32.37.64.17 1.29.33 1.93.5.81.2 1.61.41 2.41.61.57.14 1.15.27 1.72.39.56.13 1.11.25 1.67.36.38.07.77.13 1.15.19.28.05.57.1.86.13.23.03.46.05.69.06.24.01.48.03.73.02.52-.02 1.04-.12 1.53-.32.52-.21.97-.52 1.34-.95.18-.21.34-.46.49-.7.19-.31.33-.66.43-1.01.08-.29.13-.6.2-.89 0-.03.03-.04.05-.07a96 96 0 010 2.4c-.02.02-.03.02-.03.03-.02.26-.03.51-.04.76-.01.17-.02.35-.04.52-.04.35-.09.71-.13 1.07-.04.28-.07.57-.12.85-.07.41-.15.81-.24 1.22-.12.5-.24 1-.39 1.5-.12.42-.26.84-.42 1.25-.19.5-.4.99-.62 1.48-.14.32-.31.63-.48.94-.19.32-.37.63-.57.94-.32.5-.66.98-1.05 1.43-.25.29-.49.59-.76.86-.35.36-.72.71-1.1 1.04-.25.24-.52.46-.79.67-.41.29-.82.59-1.24.85-.5.31-1 .61-1.52.88-.61.31-1.25.57-1.87.86-.01 0-.02.02-.03.04-.03 0-.06 0-.1-.01a.265.265 0 00-.06-.05c-.51-.22-1.02-.44-1.53-.68-.35-.16-.69-.35-1.02-.55-.36-.2-.72-.41-1.07-.64-.39-.27-.77-.54-1.14-.84-.41-.33-.81-.67-1.2-1.03-.26-.23-.5-.5-.74-.75-.06-.06-.11-.12-.17-.19.03 0 .04-.01.06-.01.21.02.42.05.63.06.16.01.33-.01.49-.02.34-.03.68-.05 1.02-.09.46-.06.9-.18 1.34-.32.62-.2 1.2-.45 1.77-.76.41-.23.81-.48 1.2-.75.51-.36 1-.75 1.45-1.19.42-.39.8-.82 1.2-1.24l.12-.15c-.03 0-.04 0-.05.01-.19.15-.37.32-.57.46-.46.34-.93.67-1.4.98-.31.21-.63.4-.96.58-.34.18-.69.36-1.05.52-.32.15-.65.28-.98.4-.45.16-.91.29-1.39.36-.32.04-.65.09-.97.11-.34.02-.67-.02-.99-.07-.43-.07-.84-.19-1.23-.38a3.89 3.89 0 01-.94-.61c-.21-.2-.43-.41-.62-.63a3.24 3.24 0 01-.55-.89c-.11-.26-.24-.52-.36-.79-.04-.07-.06-.15-.08-.2.38.06.75.14 1.13.19.32.05.65.09.98.1.35.01.71-.01 1.07-.02.23-.01.46-.02.69-.04.24-.02.49-.04.73-.07.35-.05.7-.09 1.04-.15.43-.08.86-.16 1.28-.26.72-.17 1.43-.36 2.12-.62.49-.19.98-.39 1.46-.61.23-.1.45-.24.66-.36.09-.06.18-.12.28-.19-.03-.01-.04-.01-.04-.01l-1.35.42c-.37.11-.75.22-1.13.32-.4.1-.79.19-1.19.28-.32.07-.64.12-.95.17-.24.04-.47.07-.71.1-.21.03-.42.05-.64.07-.2.02-.4.04-.6.04-.34 0-.68 0-1.02-.02-.32-.01-.63-.04-.95-.08-.26-.03-.53-.07-.79-.13-.37-.09-.73-.23-1.06-.42-.3-.18-.58-.38-.83-.61-.13-.13-.26-.26-.36-.4a8.59 8.59 0 01-.5-.73 4.61 4.61 0 01-.49-1.17c-.08-.28-.13-.57-.19-.86-.02-.11-.03-.22-.05-.34.09.07.16.12.23.17.31.26.68.4 1.06.53.63.23 1.28.36 1.94.47.46.08.92.14 1.38.2.26.03.52.05.78.07.31.03.61.04.91.06.28.01.55.03.82.04.34.01.69.01 1.03.02.19 0 .39-.02.59-.02.25-.01.51-.01.76-.02.32-.02.65-.03.98-.06.27-.02.55-.03.83-.08.35-.05.71-.13 1.06-.21.06-.01.11-.04.17-.06 0-.02-.01-.03-.01-.05-.35 0-.71.01-1.06 0-.23 0-.47-.01-.7-.02l-1-.03c-.26-.01-.53-.03-.79-.04-.27-.01-.53-.03-.8-.04-.09 0-.18-.01-.27-.02-.25-.02-.51-.05-.76-.07l-.61-.06c-.27-.04-.53-.07-.8-.11-.27-.05-.54-.08-.81-.14-.4-.09-.8-.2-1.19-.3-.49-.13-.96-.31-1.4-.57-.54-.33-1.04-.7-1.46-1.17-.17-.2-.34-.4-.49-.62-.28-.41-.47-.87-.61-1.35 0-.01-.02-.03-.03-.04v-1.63zm23 .27c-.02 0-.03-.01-.04-.02.01 0 .02-.01.03-.02.01.01.01.02.01.04z" fill="#FFF"/><path d="M1.61 10.5c-.1-.1-.2-.18-.29-.27a2.48 2.48 0 01-.62-.98c-.1-.29-.18-.58-.24-.88-.05-.2-.05-.4-.07-.61-.01-.11-.02-.23-.01-.35.01-.29.03-.57.05-.85 0-.02.02-.04.04-.09.16.45.41.81.78 1.1-.01-1.24.45-2.28 1.23-3.21.06.17.11.34.18.5.11.29.27.55.46.79.11.13.22.26.35.38.31.31.66.56 1.03.77.52.3 1.07.53 1.64.69.4.11.8.21 1.2.28.33.07.67.1 1.01.16.28.05.57.11.85.19.46.12.92.24 1.37.38.33.11.65.26.97.4.46.2.9.45 1.32.74.33.23.65.47.95.73.28.23.54.49.79.75.25.27.49.56.72.85.27.32.53.65.8.98.13.17.28.32.47.44.26.16.42.06.55-.15.17-.28.27-.59.3-.92.02-.2.04-.39.04-.58 0-.44-.1-.86-.26-1.27-.15-.41-.35-.79-.61-1.15-.15-.21-.32-.41-.49-.61-.11-.13-.22-.27-.35-.39-.27-.25-.55-.49-.82-.73-.05-.04-.09-.08-.14-.11-.01-.02-.03-.02-.05-.03l-.03.03c.03.02.07.04.1.07.42.41.8.86 1.14 1.36.28.42.53.85.68 1.34.08.27.14.54.13.82a1.5 1.5 0 01-.09.42c-.09.26-.36.3-.61.12-.18-.14-.3-.33-.44-.51-.19-.25-.37-.49-.57-.72-.25-.3-.52-.58-.79-.86-.33-.33-.7-.62-1.07-.89-.51-.37-1.06-.68-1.63-.94-.54-.25-1.11-.45-1.69-.61-.2-.06-.41-.11-.63-.17.11-.04.21-.07.31-.09.47-.1.94-.21 1.42-.29.34-.06.68-.09 1.02-.14.19-.02.19-.02.11-.2-.18-.37-.3-.76-.34-1.17-.02-.25-.05-.51-.03-.76.02-.35.08-.69.17-1.02.12-.4.28-.77.47-1.14.04-.08.1-.16.17-.23.02.32.11.63.3.93.47-1.01 1.03-1.94 1.72-2.8.01.04.01.06.01.08 0 .44.09.87.2 1.29.15.54.37 1.07.62 1.57.27.54.57 1.05.92 1.54.26.38.55.74.83 1.11.41.54.83 1.07 1.22 1.61.35.5.68 1 .99 1.52.32.51.59 1.04.82 1.59.19.46.35.92.46 1.4.07.29.12.57.18.86.07.33.25.55.58.65.04.01.09.03.15.06-.04.08-.07.16-.12.25-.19.35-.47.64-.75.92-.39.39-.64.85-.71 1.39a4.4 4.4 0 00-.04.81c.01.29.11.56.19.84.11.37.2.74.28 1.12.04.23.06.47.07.71.02.19.03.38.02.57-.03.54-.12 1.08-.35 1.58-.19.39-.42.75-.74 1.04-.13.12-.27.22-.42.33-.07-.14-.13-.25-.2-.37-.23-.43-.48-.85-.84-1.19-.3-.28-.66-.45-1.06-.53-.65-.14-1.3-.09-1.96-.1-.11 0-.23.02-.35.03 0-.01-.01-.02-.01-.03.06-.07.12-.16.19-.23.18-.16.38-.3.63-.36.18-.04.36-.07.55-.09.23-.01.47 0 .71-.02.37-.02.74-.05 1.08-.24.32-.19.59-.42.71-.79.11-.36-.05-.68-.31-.88-.25-.19-.54-.27-.85-.31-.32-.05-.6.02-.87.17-.36.2-.72.41-1.08.6-.58.32-1.17.62-1.81.76-.29.07-.58.11-.87.08-.51-.03-.96-.2-1.37-.52-.39-.31-.69-.69-.94-1.11a.395.395 0 01-.06-.15l.17.2c.26.33.57.6.94.81.26.15.54.25.83.29.23.04.47.02.71.01.35-.02.67-.14.98-.3.41-.23.76-.52.98-.95.12-.25.17-.52.07-.8-.1-.26-.29-.43-.52-.55-.09-.05-.18-.09-.28-.13-.02-.01-.05-.01-.08-.02.35.98-.23 1.78-.95 1.98-.75.22-1.56-.16-1.82-.93s.13-1.6.93-1.88l-.39-.3c-.17-.14-.35-.28-.52-.43-.26-.22-.52-.45-.78-.68-.07-.06-.14-.13-.22-.2-.17-.16-.33-.32-.5-.48-.27-.23-.53-.48-.82-.69-.31-.23-.68-.36-1.07-.41-.5-.06-.96.02-1.42.21-.4.17-.75.41-1.07.71-.39.35-.71.77-.97 1.22-.28.48-.48.99-.6 1.52-.07.3-.11.61-.14.93-.02.28-.03.57-.02.85.03.44.1.87.22 1.29.07.23.14.45.21.67 0 .02.01.04-.01.07l-.21-.33c-.27-.49-.55-.97-.8-1.47-.23-.44-.42-.91-.57-1.39-.13-.4-.22-.8-.29-1.21-.06-.39-.07-.78-.04-1.17.02-.33.08-.66.15-.98.1-.43.24-.85.34-1.27.05-.22.06-.44.09-.66.01-.06-.02-.08-.08-.09a2.7 2.7 0 01-.9-.36c-.07-.05-.15-.09-.22-.14zm10.25 5.38c-.13.11-.13.33 0 .46.14.14.33.14.46.01.14-.14.15-.33.02-.46-.15-.15-.33-.16-.48-.01z" fill="#FFF"/></svg>