<svg width="190" height="190" fill="none" xmlns="http://www.w3.org/2000/svg"><defs><linearGradient x1="95" y1="10" x2="95" y2="95" id="a" gradientUnits="userSpaceOnUse"><stop stop-color="#01A582"/><stop offset="1" stop-color="#0E5243"/></linearGradient></defs><circle cx="95" cy="95" r="95" fill="#0C6350"/><circle cx="95" cy="95" r="85" stroke="#1F2837" stroke-width="20"/><path d="M0 95q0-19.33 7.46-36.99 7.22-17.05 20.36-30.19T58.01 7.46Q75.67 0 95 0q19.32 0 36.98 7.46 17.05 7.22 30.19 20.36t20.36 30.19Q190 75.67 190 95h-20q0-31.07-21.97-53.04Q126.06 20 95 20q-31.07 0-53.04 21.96Q20 63.93 20 95H0zm189.98-.02l.02.02c0 5.6-4.4 10-10 10s-10-4.4-10-10l.02-.02h19.96zm-170 0L20 95c0 5.6-4.41 10-10 10-5.6 0-10-4.4-10-10l.01-.02h19.97z" fill="url(#a)" fill-rule="evenodd"/></svg>