<svg width="24" height="24" fill="none" xmlns="http://www.w3.org/2000/svg"><defs><clipPath id="a"><path fill="#fff" fill-opacity="0" d="M0 0h24v24H0z"/></clipPath></defs><path d="M0 0h24v24H0z"/><g clip-path="url(#a)"><path d="M22.7 12c0 5.91-4.79 10.7-10.7 10.7-5.92 0-10.71-4.79-10.71-10.7C1.29 6.08 6.08 1.29 12 1.29c5.91 0 10.7 4.79 10.7 10.71z" fill="#FFF" fill-rule="evenodd"/><path d="M12 0C9.62 0 7.3.7 5.33 2.02A11.977 11.977 0 00.91 7.4C0 9.6-.24 12.01.23 14.34a11.983 11.983 0 009.42 9.42c2.33.47 4.74.23 6.94-.68 2.19-.91 4.06-2.44 5.38-4.42C23.29 16.69 24 14.37 24 12c0-1.58-.31-3.13-.9-4.59-.6-1.45-1.48-2.77-2.58-3.89-1.11-1.11-2.43-2-3.88-2.6-1.45-.61-3-.92-4.58-.92H12zm.2 12.4l-1.25 4.21h6.68c.05 0 .09.01.13.03.04.01.08.04.11.07.04.03.06.06.08.1.02.04.03.09.03.13v.11l-.58 2.01a.46.46 0 01-.16.23c-.08.06-.18.09-.28.09H6.74l1.71-5.84-1.92.58.44-1.34 1.92-.58L11.3 4c.02-.09.08-.17.16-.23a.39.39 0 01.27-.08h2.59a.2.2 0 01.13.02c.04.01.08.04.11.07.03.03.06.06.08.1.02.04.03.09.03.13v.11l-2.04 6.92 1.92-.58-.4 1.39-1.95.55z" fill="#345D9D"/></g></svg>