<svg width="42" height="25" fill="none" xmlns="http://www.w3.org/2000/svg"><path d="M26.8 4.28c-.85-.97-2.42-1.45-4.59-1.45h-6.04c-.37 0-.73.36-.85.72L12.9 19.38c0 .36.25.61.49.61h3.74l.97-5.92v.24c.12-.37.48-.73.85-.73h1.81c3.5 0 6.16-1.45 7-5.43v-.37c.12-1.57-.12-2.53-.96-3.5z" fill="#263B80"/><path d="M27.64 7.78v.37c-.84 4.1-3.5 5.43-7 5.43h-1.82c-.36 0-.72.36-.84.73l-1.21 7.37c0 .24.12.48.48.48h3.14c.37 0 .73-.24.73-.6v-.12l.6-3.75v-.24c0-.36.37-.61.73-.61h.48c3.02 0 5.44-1.2 6.04-4.83.24-1.45.12-2.78-.6-3.62-.12-.24-.36-.49-.73-.61z" fill="#139AD6"/><path d="M26.8 7.42c-.12 0-.24-.12-.36-.12-.13 0-.25 0-.37-.12-.48-.12-.96-.12-1.57-.12h-4.71c-.12 0-.24 0-.36.12a.66.66 0 00-.36.6l-.97 6.29v.24c.12-.37.48-.73.85-.73h1.81c3.5 0 6.16-1.45 7-5.43 0-.13 0-.25.13-.37-.25-.12-.37-.24-.61-.24-.36-.12-.36-.12-.48-.12z" fill="#232C65"/></svg>