<svg width="573.073" height="628" fill="none" xmlns="http://www.w3.org/2000/svg"><defs><radialGradient gradientTransform="matrix(-49.11842 56.80194 -57.5551 -49.7697 297.497 259.631)" cx="0" cy="0" r="1" id="a" gradientUnits="userSpaceOnUse"><stop stop-color="#03EAB9"/><stop offset=".609" stop-color="#02C097"/><stop offset="1" stop-color="#07725B"/></radialGradient><linearGradient x1="369.742" y1="269.855" x2="383.505" y2="20.407" id="b" gradientUnits="userSpaceOnUse"><stop stop-color="#085B49" stop-opacity="0"/><stop offset="1" stop-color="#01A582"/></linearGradient></defs><path d="M573.07 439.5l-140.13 84.19H316.63l-3.41-240.37L573.07 439.5z" fill="#121B26" fill-opacity=".3"/><path d="M316.73 524.07l152.72-81.89V322.34l-152.72 81.95v119.78z" fill="#242E40"/><path d="M163.74 441.99l152.99 82.08V404.29l-152.99-82.14v119.84z" fill="#283345"/><path d="M316.73 404.29l152.72-81.95-153.06-82.08-152.65 81.89 152.99 82.14z" fill="#00735A"/><path d="M458.1 322.34l-141.71-76.02-141.3 75.83 141.64 76.03 141.37-75.84z" fill="#01A582"/><path d="M249.09 550.97L303.22 580c2.08 1.12 2.01 3.99-.14 5.05L215.04 628h-5.78l-5.77-38.83 45.6-38.14v-.06z" fill="#121B26" fill-opacity=".3"/><path d="M86.29 459.09l208.8 112.73c-1.01-.56-2.42-.44-3.97.37L82.33 459.47c1.54-.81 2.95-.94 3.96-.38z" fill="#273143"/><path d="M285.61 580.87L76.82 468.15c0 1.74.67 2.93 1.68 3.49l208.79 112.73c-1-.57-1.68-1.75-1.68-3.5z" fill="#181E28"/><path d="M208.86 622.88L0 510.15l.47 5.06 208.79 112.72-.4-5.05z" fill="#273143"/><path d="M291.13 572.19L82.33 459.47 0 510.15l208.86 112.73 82.27-50.69z" fill="#313E54"/><path d="M291.13 572.19l-82.34 50.69.4 5.05 76.36-47.06c0 3.49 2.49 4.8 5.58 3.12 3.09-1.62 5.57-5.62 5.51-8.93-.07-3.3-2.49-4.62-5.58-2.93l.07.06z" fill="#273143"/><path d="M93.2 472.7l-8.73 5.24c-1.01.63-2.55.69-3.43.19l-9.4-5.12c-.4-.18-.6-.5-.6-.81v-1s.13.63.54.81l9.4 5.12c.87.5 2.41.38 3.42-.18l8.73-5.25c.54-.31.81-.75.81-1.18v1c.13.37-.14.81-.74 1.18zm15.18 8.24l-8.73 5.24c-1.01.63-2.56.69-3.5.19l-9.33-5.12c-.4-.19-.61-.5-.61-.81v-1s.14.62.54.81l9.34 5.12c.94.5 2.48.44 3.49-.19l8.73-5.24c.54-.31.81-.75.81-1.19v1c.13.38-.14.81-.74 1.19zm15.11 8.24l-8.73 5.24c-1.01.57-2.55.69-3.49.19l-9.34-5.12c-.4-.19-.6-.5-.67-.81v-1c0 .31.14.63.61.81l9.33 5.12c.94.5 2.49.38 3.49-.19l8.73-5.24c.54-.31.81-.75.81-1.18v.99c.14.38-.2.82-.74 1.19zm-44.79-9.43v1c.14.38-.2.81-.74 1.19l-8.73 5.24c-1 .63-2.55.69-3.49.25l-9.33-5.12c-.41-.18-.61-.5-.61-.81v-1s.14.63.54.81l9.33 5.12c.94.5 2.49.38 3.5-.25l8.73-5.24c.53-.37.87-.75.8-1.19zm6.45 31.71l22.9-13.79c.74-.44 1.07-.94 1.01-1.5v1c.13.5-.21 1.06-.94 1.5l-22.91 13.79c-1.27.75-3.15.88-4.29.25L41.56 491.3c-.54-.25-.74-.62-.8-1v-.99c0 .37.2.74.73.99l39.36 21.41c1.14.63 3.09.5 4.3-.25zm-37.01-13.29v1c.13.37-.14.81-.74 1.18l-8.73 5.25c-1.01.62-2.56.68-3.43.18l-9.4-5.11c-.4-.19-.6-.5-.6-.82v-.99s.13.62.53.81l9.4 5.11c.88.5 2.42.38 3.43-.18l8.73-5.25c.54-.31.81-.74.81-1.18zm-37.67 10.79l9.33 5.12c.94.5 2.42.38 3.43-.18l8.73-5.25c.53-.31.8-.75.8-1.18v1c.14.37-.13.81-.74 1.18l-8.73 5.24c-1 .63-2.55.69-3.42.19l-9.34-5.12c-.4-.18-.6-.5-.6-.81v-1s.13.63.54.81zm39.9 5.13l-9.34-5.12c-.4-.19-.6-.5-.6-.81v-1s.13.62.53.81l9.34 5.12c.94.5 2.48.43 3.49-.19l8.73-5.24c.54-.32.81-.75.81-1.19v1c.13.37-.14.81-.74 1.19l-8.73 5.24c-1.01.62-2.55.68-3.49.19zm-24.8 3.12l9.34 5.11c.94.5 2.48.44 3.49-.18l8.73-5.25c.54-.31.81-.75.81-1.18v1c.13.37-.14.81-.74 1.18l-8.73 5.25c-1.01.62-2.55.68-3.49.18l-9.34-5.12c-.4-.18-.6-.5-.6-.81v-1s.13.63.53.82zm39.9 5.05l-9.34-5.12c-.4-.19-.6-.5-.67-.81v-1c0 .31.13.63.6.81l9.34 5.12c.94.5 2.48.37 3.49-.19l8.73-5.24c.54-.31.81-.75.81-1.19v1c.13.38-.2.81-.74 1.19l-8.73 5.24c-1.01.63-2.55.69-3.49.19zm-24.72 3.18l9.34 5.12c.94.5 2.48.38 3.49-.19l8.73-5.24c.54-.31.81-.75.81-1.18v.99c.13.38-.14.82-.74 1.19l-8.73 5.24c-1.01.63-2.56.69-3.5.19l-9.33-5.12c-.4-.18-.61-.5-.67-.81v-1c0 .31.13.63.6.81zm103.16-25.27l-8.73 5.24c-1.01.62-2.55.68-3.43.18l-14.23-7.73c-.41-.25-.61-.5-.67-.88v-1c0 .32.13.63.6.88l14.24 7.74c.87.5 2.41.37 3.42-.19l8.73-5.24c.54-.32.81-.75.81-1.19v1c.13.37-.14.81-.74 1.19zm-42.11 5.92l9.33 5.06c.87.5 2.49.44 3.49-.19l8.73-5.24c.54-.31.81-.75.81-1.19v1c.13.38-.13.81-.74 1.19l-8.73 5.24c-1.01.63-2.55.69-3.49.19l-9.34-5.06c-.4-.25-.6-.5-.6-.81v-1c0 .32.13.63.54.81zm-.54 17.92l-14.24-7.74c-.4-.25-.6-.5-.6-.81v-1c0 .31.13.62.53.81l14.24 7.74c.94.5 2.42.37 3.43-.19l8.73-5.24c.53-.31.8-.75.8-1.19v1c.14.38-.13.81-.74 1.19l-8.73 5.24c-1 .63-2.55.69-3.42.19zm-20.42 6.49l-9.33-5.06c-.4-.25-.6-.5-.6-.81v-1c0 .32.13.63.53.82l9.34 5.05c.87.5 2.48.44 3.49-.19l8.73-5.24c.54-.31.81-.75.81-1.18v.99c.13.44-.14.88-.74 1.19l-8.73 5.24c-1.01.63-2.55.69-3.5.19zm78.18-22.09l-8.73 5.24c-1.01.62-2.55.68-3.42.18l-9.4-5.11c-.41-.19-.61-.5-.61-.81v-1s.14.62.54.81l9.4 5.12c.87.5 2.42.37 3.43-.19l8.73-5.24c.53-.32.8-.75.8-1.19v1c.14.37-.13.81-.74 1.19zm15.11 8.23l-8.73 5.25c-1.01.62-2.55.68-3.49.18l-9.34-5.12c-.4-.25-.6-.49-.67-.81v-.99c0 .31.14.62.61.81l9.33 5.11c.94.5 2.49.44 3.49-.18l8.73-5.25c.54-.31.81-.74.81-1.18v1c.14.37-.13.81-.74 1.18zm15.11 8.24l-8.73 5.24c-1.01.57-2.55.69-3.49.19l-9.34-5.12c-.4-.18-.6-.5-.67-.81v-1c0 .31.14.63.61.81l9.33 5.12c.94.5 2.49.38 3.49-.19l8.73-5.24c.54-.31.81-.75.81-1.18v.99c.13.38-.13.82-.74 1.19zm-59.44-5.68l8.73-5.24c.54-.38.88-.75.81-1.19v1c.13.44-.2.81-.74 1.19l-8.73 5.24c-1.01.62-2.55.69-3.49.19l-9.34-5.06c-.4-.25-.6-.5-.6-.81v-1c0 .31.13.63.54.81l9.33 5.06c.94.5 2.49.44 3.49-.19zm15.11 8.24l8.73-5.24c.61-.38.88-.82.81-1.19v1c.14.44-.2.87-.74 1.18l-8.73 5.25c-1.01.62-2.55.68-3.42.19l-9.41-5.12c-.4-.25-.6-.5-.6-.81v-1s.13.62.54.81l9.4 5.12c.87.5 2.42.37 3.42-.19zm15.11 8.24l8.74-5.24c.53-.31.8-.75.8-1.19v1c.14.37-.2.81-.74 1.19l-8.73 5.24c-1.01.62-2.55.69-3.42.19l-9.4-5.12c-.41-.19-.61-.5-.61-.81v-1s.13.62.54.81l9.4 5.12c.87.5 2.42.37 3.42-.19zm-43.65-3.43l-9.33-5.12c-.4-.19-.61-.5-.61-.81v-1s.14.62.54.81l9.34 5.12c.94.5 2.48.37 3.42-.19l8.73-5.24c.54-.31.87-.75.81-1.19v1c.13.38-.2.81-.74 1.19l-8.73 5.24c-1.01.56-2.55.69-3.43.19zm15.12 8.24l-9.33-5.12c-.41-.25-.61-.5-.68-.81v-1c0 .31.14.62.61.81l9.33 5.12c.95.5 2.49.37 3.5-.19l8.73-5.24c.53-.31.8-.75.8-1.19v1c.14.38-.13.81-.73 1.19l-8.74 5.24c-1 .62-2.55.69-3.49.19zm72.87-7.37l-8.73 5.24c-1.01.63-2.55.69-3.49.19l-9.34-5.12c-.4-.18-.6-.5-.67-.81v-1c0 .32.13.63.6.82l9.34 5.11c.94.5 2.48.38 3.49-.18l8.73-5.25c.54-.31.87-.75.81-1.18v1c.13.37-.2.81-.74 1.18zm-29.23 10.8l8.73-5.24c.54-.32.81-.75.81-1.19v1c.13.37-.13.81-.74 1.18l-8.73 5.25c-1.01.62-2.55.68-3.49.18l-9.34-5.05c-.4-.25-.6-.5-.6-.81v-1c0 .31.13.62.54.81l9.33 5.06c.87.5 2.49.43 3.49-.19zm-28.46 4.81l-9.34-5.06c-.4-.25-.6-.5-.6-.81v-1c0 .31.13.62.54.81l9.33 5.06c.87.5 2.48.43 3.49-.19l8.73-5.24c.54-.32.81-.75.81-1.19v1c.13.37-.14.81-.74 1.19l-8.73 5.24c-1.01.62-2.55.68-3.49.19zm15.1 8.17l-9.33-5.05c-.41-.25-.61-.5-.61-.82v-.99c0 .31.14.62.54.81l9.33 5.05c.94.5 2.49.44 3.5-.19l8.73-5.24c.53-.37.87-.75.8-1.18v1c.14.43-.2.81-.74 1.18l-8.73 5.24c-1 .63-2.55.69-3.49.19zm57.7-15.54l-8.73 5.24c-1.01.63-2.56.69-3.43.19l-9.4-5.12c-.4-.25-.6-.5-.6-.81v-1s.13.63.53.81l9.4 5.12c.88.5 2.42.38 3.43-.19l8.73-5.24c.54-.37.87-.75.81-1.19v1c.13.38-.2.82-.74 1.19zm-29.23 10.8l8.73-5.25c.54-.31.81-.74.81-1.18v1c.13.37-.14.81-.74 1.18l-8.73 5.25c-1.01.62-2.55.68-3.49.18l-9.34-5.12c-.4-.18-.6-.49-.67-.81v-.99c0 .31.13.62.6.81l9.34 5.11c.94.5 2.48.44 3.49-.18zm-13.36 13.04l-9.4-5.11c-.4-.25-.6-.5-.6-.82v-.99s.13.62.53.81l9.4 5.12c.88.49 2.42.37 3.43-.19l8.73-5.24c.6-.38.87-.82.81-1.19v1c.13.44-.21.87-.74 1.18l-8.73 5.25c-1.01.62-2.55.68-3.43.18zM56.74 533.62l14.23 7.74c.88.5 2.42.38 3.43-.19l8.73-5.24c.6-.37.87-.81.81-1.19v1c.13.44-.21.88-.74 1.19l-8.73 5.24c-1.01.63-2.56.69-3.43.19l-14.24-7.74c-.4-.25-.6-.5-.67-.87v-1c0 .31.14.62.61.81v.06zm39.22 5.12l-9.33-5.06c-.4-.18-.61-.5-.61-.81v-1c0 .32.14.63.54.81l9.34 5.06c.94.5 2.48.44 3.49-.19l8.73-5.24c.54-.31.81-.75.81-1.19v1c.13.38-.21.81-.74 1.19l-8.73 5.24c-1.01.63-2.56.69-3.5.19zm-19.61 5.74l69.98 38.14c.94.5 2.42.37 3.43-.19l8.73-5.24c.53-.38.87-.75.8-1.19v1c.14.37-.2.81-.74 1.19l-8.73 5.24c-1 .62-2.55.69-3.42.19l-69.98-38.14c-.4-.25-.61-.5-.67-.87v-1c0 .31.13.62.6.87zm34.72 2.5l-9.4-5.12c-.41-.19-.61-.5-.61-.81v-1s.14.62.54.81l9.4 5.12c.87.5 2.42.37 3.43-.19l8.73-5.24c.53-.32.8-.75.8-1.19v1c.14.37-.13.81-.74 1.19l-8.73 5.24c-1 .62-2.55.69-3.42.19zm15.11 8.24l-9.4-5.12c-.41-.19-.61-.5-.61-.81v-1s.14.62.54.81l9.4 5.12c.94.5 2.42.37 3.43-.19l8.73-5.24c.53-.32.8-.75.8-1.19v1c.14.37-.13.81-.73 1.18l-8.74 5.25c-1 .62-2.55.69-3.42.19zm15.11 8.24l-9.33-5.12c-.41-.25-.61-.5-.68-.81v-1c0 .31.14.62.61.81l9.33 5.12c.94.5 2.49.43 3.5-.19l8.73-5.24c.53-.32.8-.75.8-1.19v1c.14.37-.13.81-.74 1.18l-8.73 5.25c-1 .62-2.55.69-3.49.19zm15.11 8.24l-9.33-5.12c-.41-.19-.61-.5-.68-.81v-1c0 .31.14.62.61.81l9.33 5.12c.94.5 2.49.37 3.5-.19l8.73-5.24c.53-.32.8-.75.8-1.19v1c.14.37-.13.81-.74 1.19l-8.73 5.24c-1 .62-2.55.69-3.49.19zm78.18-22.1l-8.73 5.24c-1.01.62-2.55.69-3.43.19l-9.4-5.12c-.4-.25-.6-.5-.6-.81v-1s.13.62.53.81l9.4 5.12c.88.5 2.42.37 3.43-.19l8.73-5.24c.6-.38.87-.81.81-1.19v1c.13.44-.21.87-.74 1.19zm-29.22 10.73l8.73-5.24c.54-.31.87-.75.8-1.19v1c.14.38-.2.81-.73 1.19l-8.73 5.24c-1.01.63-2.56.69-3.5.19l-9.33-5.12c-.41-.19-.61-.5-.67-.81v-1c0 .31.13.62.6.81l9.34 5.12c.94.5 2.48.44 3.49-.19zM192 573.38l-9.4-5.12c-.41-.18-.61-.5-.61-.81v-1s.14.63.54.81l9.4 5.12c.88.5 2.42.38 3.43-.18l8.73-5.25c.54-.31.8-.75.8-1.18v1c.14.37-.13.81-.73 1.18l-8.73 5.24c-1.01.63-2.56.69-3.43.19zm-20.42 6.49l-9.33-5.06c-.4-.25-.61-.5-.61-.81v-1c0 .32.14.63.54.82l9.34 5.05c.94.5 2.48.44 3.49-.19l8.73-5.24c.54-.31.87-.75.81-1.19v1c.13.38-.21.81-.74 1.19l-8.73 5.24c-1.01.63-2.56.69-3.5.19zm-19.35 5.74l9.34 5.12c.94.5 2.41.38 3.42-.19l8.73-5.24c.54-.31.81-.75.81-1.18v.99c.13.38-.14.82-.74 1.19l-8.73 5.24c-1.01.63-2.55.69-3.43.19l-9.33-5.12c-.41-.19-.61-.5-.61-.81v-1s.14.63.54.81zm97.52-27.77l-8.73 5.24c-1.01.63-2.55.69-3.49.19l-9.34-5.06c-.4-.25-.6-.5-.67-.87v-1c0 .31.13.62.61.87l9.33 5.06c.87.5 2.48.44 3.49-.19l8.73-5.24c.54-.31.81-.75.81-1.19v1c.13.44-.14.88-.74 1.19zm-29.28 10.73l8.73-5.24c.53-.37.87-.75.8-1.18v.99c.14.38-.2.82-.74 1.19l-8.73 5.24c-1 .63-2.55.69-3.49.25l-9.33-5.12c-.41-.18-.61-.49-.61-.81v-.99s.14.62.54.81l9.33 5.11c.94.5 2.49.38 3.5-.25zm-13.43 12.05c.88.5 2.49.44 3.49-.19l8.74-5.24c.53-.31.8-.75.8-1.19v1c.14.38-.13.81-.74 1.19l-8.73 5.24c-1 .63-2.55.69-3.49.19l-9.34-5.06c-.4-.25-.6-.5-.6-.81v-1c0 .32.14.63.54.81l9.33 5.06zm-20.35 7.49l-9.4-5.12c-.4-.25-.6-.5-.6-.81v-1s.13.63.53.81l9.41 5.12c.87.5 2.41.38 3.42-.19l8.73-5.24c.61-.37.87-.81.81-1.18v.99c.13.44-.2.88-.74 1.19l-8.73 5.24c-1.01.63-2.55.69-3.43.19zm78.17-22.1l-8.73 5.25c-1 .62-2.55.69-3.49.19l-9.33-5.06c-.41-.19-.61-.5-.61-.81v-1c0 .31.14.62.54.81l9.33 5.06c.88.5 2.49.43 3.5-.19l8.73-5.24c.53-.32.8-.75.8-1.19v1c.14.37-.13.81-.74 1.18zm-29.2 10.8l8.73-5.24c.53-.31.8-.75.8-1.19v1c.14.38-.13.81-.74 1.19l-8.73 5.24c-1 .62-2.55.69-3.49.19l-9.4-5.12c-.4-.19-.61-.5-.61-.81v-1s.14.62.54.81l9.4 5.12c.88.5 2.49.44 3.5-.19zm-1.22 7.56l-8.73 5.24c-1 .62-2.55.69-3.49.19l-9.33-5.12c-.41-.19-.61-.5-.67-.81v-1c0 .31.13.62.6.81l9.33 5.12c.95.5 2.49.43 3.5-.19l8.73-5.24c.54-.31.8-.75.8-1.19v1c.14.37-.13.81-.74 1.19zm-20.42 6.55l-8.73 5.24c-1.01.62-2.55.69-3.49.19l-9.4-5.12c-.41-.25-.61-.5-.61-.81v-1s.14.62.54.81l9.4 5.12c.87.5 2.49.44 3.49-.19l8.73-5.24c.54-.31.81-.75.81-1.19v1c.13.44-.13.88-.74 1.19zm-46.68 2.93l9.34 5.12c.94.5 2.48.37 3.49-.19l8.73-5.24c.54-.31.81-.75.81-1.18v.99c.13.38-.14.81-.74 1.19l-8.73 5.24c-1.01.63-2.55.69-3.49.19l-9.34-5.12c-.4-.25-.6-.5-.67-.81v-1c0 .31.13.63.6.81zm90.47-20.03v-1c0 .31.13.62.54.81l9.33 5.06c.94.49 2.49.43 3.49-.19l8.73-5.24c.54-.32.81-.75.81-1.19v1c.14.37-.13.81-.74 1.18l-8.73 5.25c-1.01.62-2.55.68-3.49.18l-9.34-5.05c-.4-.19-.6-.5-.6-.81zm-20.48 6.49v-1c0 .31.13.63.6.87l14.24 7.74c.87.5 2.42.38 3.43-.18l8.73-5.25c.6-.37.87-.81.8-1.18v1c.14.37-.2.87-.74 1.18l-8.73 5.25c-1 .62-2.55.68-3.42.18L238 581.18c-.4-.25-.6-.5-.67-.87zm-9.95 11.86v-1c0 .31.14.62.61.81l9.33 5.12c.94.5 2.49.37 3.49-.19l8.73-5.24c.54-.31.88-.75.81-1.19v1c.13.38-.2.81-.74 1.19l-8.73 5.24c-1.01.56-2.55.69-3.49.19l-9.34-5.12c-.4-.19-.6-.5-.67-.81zm-20.41 6.49v-1c0 .31.14.62.54.81l14.24 7.74c.87.5 2.42.38 3.42-.19l8.73-5.24c.54-.31.81-.75.81-1.19v1c.13.38-.13.82-.74 1.19l-8.73 5.24c-1.01.63-2.55.69-3.43.19l-14.23-7.74c-.4-.19-.61-.5-.61-.81zm-24.52 3.43l9.34 5.06c.87.5 2.48.43 3.49-.19l8.73-5.24c.54-.32.8-.75.8-1.19v1c.14.37-.13.81-.73 1.19l-8.73 5.24c-1.01.62-2.56.69-3.5.19l-9.33-5.06c-.41-.19-.61-.5-.67-.81v-1c0 .31.13.62.6.81zm15.12 8.24l9.33 5.06c.94.49 2.49.43 3.49-.19l8.73-5.25c.54-.37.88-.74.81-1.18v1c.13.43-.2.81-.74 1.18l-8.73 5.25c-1.01.62-2.55.68-3.49.18l-9.34-5.05c-.4-.25-.6-.5-.6-.81v-1c0 .31.13.62.54.81z" fill="#19202D"/><path d="M93.14 471.7l-8.73 5.24c-1.01.63-2.55.69-3.43.19l-9.4-5.12c-.87-.5-.8-1.37.2-1.99l8.73-5.25c1.01-.62 2.56-.68 3.43-.18l9.4 5.11c.87.5.81 1.38-.2 2zm15.11 8.24l-8.73 5.24c-1.01.63-2.56.69-3.5.19l-9.33-5.12c-.94-.5-.81-1.37.2-2l8.73-5.24c1.01-.62 2.55-.69 3.43-.19l9.4 5.12c.87.5.87 1.37-.14 2h-.06zm15.11 8.24l-8.73 5.24c-1.01.57-2.56.69-3.5.19l-9.33-5.12c-.94-.5-.87-1.37.13-2l8.73-5.24c1.01-.62 2.56-.68 3.5-.19l9.33 5.12c.94.5.87 1.38-.13 2zm-45.46-7.24l-8.74 5.24c-1 .63-2.55.69-3.49.25l-9.33-5.12c-.94-.5-.81-1.37.2-1.99l8.73-5.25c1.01-.62 2.55-.68 3.49-.25l9.34 5.12c.94.5.8 1.37-.2 2z" fill="#242E40"/><path d="M68.77 489.43l11.48-6.93c1.28-.75 3.16-.87 4.3-.25l23.7 12.92c1.15.62 1.01 1.75-.26 2.5l-22.91 13.79c-1.27.75-3.15.87-4.29.25L41.43 490.3c-1.14-.62-1.07-1.75.2-2.5l8.53-5.11c.81-.5 2.08-.56 2.89-.19l13.23 7.11c.6.38 1.75.25 2.42-.18h.07zm-21.44 9.92l-8.73 5.25c-1 .62-2.55.68-3.42.18l-9.4-5.11c-.88-.5-.81-1.38.2-2l8.73-5.24c1-.63 2.55-.69 3.42-.19l9.4 5.12c.88.49.81 1.37-.2 1.99zm-36.66 7.62l8.73-5.25c1.01-.62 2.55-.68 3.43-.18l9.4 5.11c.87.5.8 1.38-.2 2l-8.73 5.24c-1.01.63-2.56.69-3.43.19l-9.33-5.12c-.95-.5-.81-1.37.2-1.99h-.07zm39.56 6.11l-9.33-5.12c-.94-.5-.81-1.37.2-1.99l8.73-5.25c1.01-.62 2.55-.68 3.43-.18l9.4 5.11c.87.5.87 1.38-.14 2l-8.73 5.24c-1 .63-2.55.69-3.49.19h-.07zm-24.45 2.13l8.73-5.25c1.01-.62 2.55-.68 3.42-.18l9.41 5.11c.94.5.87 1.38-.14 2l-8.73 5.25c-1.01.62-2.55.68-3.49.18l-9.34-5.12c-.94-.5-.8-1.37.21-1.99h-.07zm39.55 6.11l-9.34-5.12c-.94-.49-.87-1.37.14-1.99l8.73-5.25c1.01-.62 2.55-.68 3.49-.18l9.34 5.12c.94.5.87 1.37-.14 1.99l-8.73 5.25c-1.01.62-2.55.68-3.49.18zm-24.44 2.12l8.73-5.24c1-.62 2.55-.68 3.49-.19l9.34 5.12c.93.5.87 1.38-.14 2l-8.73 5.24c-1.01.63-2.55.69-3.49.19l-9.34-5.12c-.94-.5-.87-1.37.14-2zm102.96-24.28l-8.74 5.25c-1 .62-2.55.68-3.42.18l-14.24-7.74c-.94-.49-.87-1.37.14-1.99l8.73-5.25c1-.62 2.55-.68 3.49-.18l14.24 7.74c.87.5.8 1.37-.2 1.99zM102 504.1l8.73-5.25c1.01-.62 2.55-.68 3.49-.19l9.34 5.12c.94.5.87 1.38-.14 2l-8.73 5.24c-1.01.63-2.55.69-3.49.19l-9.34-5.05c-.87-.5-.87-1.38.14-2v-.06zm-.81 18.91l-14.23-7.74c-.94-.5-.81-1.44.2-2l8.73-5.24c1.01-.63 2.55-.69 3.49-.19l14.24 7.74c.87.5.81 1.37-.2 2l-8.73 5.24c-1.01.63-2.55.69-3.43.19h-.07zm-20.4 6.49l-9.34-5.06c-.87-.5-.87-1.37.14-1.99l8.73-5.25c1-.62 2.55-.68 3.49-.18l9.33 5.05c.88.5.81 1.44-.2 2l-8.73 5.24c-1 .62-2.55.69-3.49.19h.07zm78.17-22.1l-8.73 5.25c-1.01.62-2.55.68-3.42.19l-9.41-5.12c-.87-.5-.8-1.38.2-2l8.74-5.24c1-.63 2.55-.69 3.42-.19l9.4 5.12c.88.5.81 1.37-.2 1.99zm15.11 8.24l-8.73 5.25c-1.01.62-2.55.68-3.49.18l-9.34-5.12c-.94-.49-.87-1.37.13-1.99l8.74-5.25c1-.62 2.55-.68 3.49-.18l9.33 5.05c.88.5.88 1.38-.13 2v.06zm15.11 8.24l-8.73 5.24c-1.01.57-2.56.69-3.5.19l-9.33-5.12c-.94-.5-.88-1.37.13-1.99l8.73-5.25c1.01-.62 2.56-.68 3.5-.18l9.33 5.11c.94.5.87 1.38-.13 2zm-59.84-17.04l9.33 5.06c.94.5.81 1.43-.2 2l-8.73 5.24c-1.01.62-2.55.68-3.49.18l-9.34-5.05c-.87-.5-.87-1.37.14-2l8.73-5.24c1.01-.62 2.55-.69 3.49-.19h.07zm15.1 8.24l9.41 5.12c.87.5.8 1.37-.21 1.99l-8.73 5.25c-1 .62-2.55.68-3.42.19l-9.4-5.12c-.88-.5-.81-1.38.2-2l8.73-5.24c1.01-.63 2.55-.69 3.42-.19zm15.12 8.24l9.4 5.12c.87.5.81 1.37-.2 2l-8.73 5.24c-1.01.62-2.56.69-3.43.19l-9.4-5.12c-.87-.5-.81-1.37.2-2l8.73-5.24c1.01-.63 2.55-.69 3.43-.19zm-43.25 7.93l-9.34-5.12c-.94-.5-.81-1.38.2-2l8.73-5.24c1.01-.63 2.55-.69 3.49-.25l9.34 5.12c.94.49.8 1.37-.2 1.99L119.8 531c-1.01.56-2.55.68-3.43.18l-.06.07zm15.12 8.23l-9.34-5.11c-.94-.5-.87-1.38.14-2l8.73-5.24c1.01-.56 2.55-.69 3.49-.19l9.33 5.12c.94.5.88 1.37-.13 1.99l-8.73 5.25c-1.01.62-2.55.68-3.49.18zm72.86-7.36l-8.73 5.24c-1.01.63-2.55.69-3.5.19l-9.33-5.12c-.94-.5-.87-1.37.13-2l8.74-5.24c1-.56 2.55-.68 3.49-.19l9.33 5.12c.94.5.88 1.38-.13 2zm-29.62-.56l9.33 5.05c.87.5.87 1.38-.13 2l-8.73 5.25c-1.01.62-2.56.68-3.5.18l-9.33-5.05c-.94-.5-.81-1.44.2-2l8.73-5.24c1.01-.63 2.55-.69 3.49-.19h-.06zm-28.07 16.16l-9.33-5.05c-.88-.5-.88-1.38.13-2l8.73-5.24c1.01-.63 2.55-.69 3.49-.19l9.34 5.12c.94.5.87 1.37-.13 2l-8.74 5.24c-1 .62-2.55.69-3.49.19v-.07zm15.11 8.18l-9.34-5.06c-.87-.5-.87-1.37.14-1.99l8.73-5.25c1.01-.62 2.55-.68 3.49-.18l9.34 5.05c.94.5.8 1.44-.21 2l-8.73 5.24c-1 .63-2.55.69-3.49.19h.07zm57.69-15.54l-8.73 5.24c-1 .63-2.55.69-3.42.19l-9.4-5.12c-.88-.5-.81-1.37.2-2l8.73-5.24c1.01-.62 2.55-.69 3.42-.19l9.34 5.12c.94.5.8 1.38-.2 2h.06zm-29.62-.56l9.33 5.05c.87.5.87 1.38-.13 2l-8.73 5.24c-1.01.63-2.56.69-3.5.19l-9.33-5.12c-.94-.5-.87-1.37.13-1.99l8.73-5.25c1.01-.62 2.56-.68 3.5-.18v.06zm-12.96 24.4l-9.41-5.11c-.87-.5-.8-1.38.2-2l8.74-5.24c1-.63 2.55-.69 3.42-.19l9.4 5.12c.88.5.81 1.37-.2 1.99l-8.73 5.25c-1.01.62-2.55.68-3.42.18zm-80.93-26.46l-9.34-5.06c-.87-.5-.8-1.43.2-1.99l8.74-5.25c1-.62 2.55-.68 3.49-.18l9.33 5.05c.94.5.81 1.44-.13 2l-8.73 5.24c-1.01.63-2.55.69-3.49.19h-.07zm-39.02-6.12l8.73-5.24c1.01-.62 2.55-.69 3.49-.19l14.24 7.74c.87.5.81 1.37-.2 2l-8.73 5.24c-1.01.63-2.55.69-3.43.19l-14.23-7.74c-.95-.5-.88-1.37.13-2zm54.14 14.36l-9.4-5.12c-.88-.5-.81-1.38.2-2l8.73-5.24c1.01-.63 2.55-.69 3.43-.19l9.4 5.12c.87.5.8 1.37-.2 2l-8.74 5.24c-1 .62-2.55.69-3.42.19zm15.11 8.24l-9.4-5.12c-.88-.5-.81-1.38.2-2l8.73-5.24c1.01-.63 2.55-.69 3.42-.19l9.41 5.12c.87.5.8 1.37-.21 1.99l-8.73 5.25c-1 .62-2.55.68-3.42.19zm15.11 8.24l-9.34-5.12c-.94-.5-.87-1.38.14-2l8.72-5.24c1.01-.63 2.56-.69 3.5-.19l9.33 5.05c.94.5.88 1.38-.13 2l-8.73 5.25c-1.01.62-2.55.68-3.49.18v.07zm15.11 8.24l-9.34-5.12c-.94-.5-.87-1.38.14-2l8.73-5.24c1-.63 2.55-.69 3.49-.19l9.33 5.12c.94.5.88 1.37-.13 2l-8.73 5.24c-1.01.62-2.55.69-3.49.19zm-79.79-28.22l8.73-5.24c1.01-.63 2.55-.69 3.49-.19l69.98 38.14c.94.5.81 1.37-.2 2l-8.73 5.24c-1.01.62-2.55.68-3.43.18l-69.97-38.13c-.94-.5-.88-1.37.13-2zm157.97 6.12l-8.74 5.24c-1 .62-2.55.69-3.42.19l-9.4-5.12c-.88-.5-.81-1.37.2-2l8.73-5.24c1.01-.63 2.55-.69 3.42-.19l9.41 5.12c.87.5.8 1.37-.2 2zm-29.63-.62l9.33 5.05c.94.5.87 1.37-.13 2l-8.73 5.24c-1.01.63-2.56.69-3.5.19l-9.33-5.12c-.94-.5-.88-1.37.13-2l8.73-5.24c1.01-.62 2.55-.69 3.5-.19v.07zm-12.96 24.4l-9.41-5.12c-.87-.5-.8-1.37.2-2l8.74-5.24c1-.62 2.55-.69 3.42-.19l9.4 5.12c.88.5.81 1.37-.2 2l-8.73 5.24c-1.01.63-2.55.69-3.42.19zm-20.42 6.49l-9.33-5.05c-.87-.5-.87-1.38.13-2l8.73-5.24c1.01-.63 2.56-.69 3.5-.19l9.33 5.12c.94.5.87 1.37-.13 1.99l-8.73 5.25c-1.01.62-2.56.68-3.5.18v-.06zm-19.14 4.75l8.73-5.25c1.01-.62 2.55-.68 3.43-.18l9.4 5.11c.87.5.81 1.38-.2 2l-8.73 5.24c-1.01.63-2.55.69-3.43.19l-9.33-5.12c-.94-.5-.81-1.37.2-1.99h-.07zm97.25-26.78l-8.73 5.24c-1 .62-2.55.69-3.49.19l-9.33-5.06c-.94-.5-.88-1.37.13-2l8.73-5.24c1.01-.62 2.55-.69 3.49-.19l9.34 5.06c.87.5.8 1.44-.2 2h.06zm-29.62-.63l9.33 5.12c.94.5.81 1.37-.2 2l-8.73 5.24c-1.01.62-2.55.69-3.49.25l-9.34-5.12c-.94-.5-.8-1.37.2-2l8.74-5.24c1-.62 2.55-.68 3.49-.25zm-13.42 12.05c1-.62 2.55-.69 3.49-.19l9.33 5.06c.88.5.88 1.37-.13 2l-8.73 5.24c-1.01.62-2.55.69-3.49.19l-9.34-5.06c-.94-.5-.8-1.43.2-2l8.73-5.24h-.06zm-19.95 18.91l-9.4-5.12c-.88-.5-.81-1.37.2-1.99l8.73-5.25c1.01-.62 2.55-.68 3.42-.18l9.41 5.11c.87.5.8 1.38-.2 2l-8.73 5.25c-1.01.62-2.56.68-3.43.18zm78.17-22.16l-8.73 5.25c-1.01.62-2.56.68-3.5.18l-9.33-5.05c-.88-.5-.81-1.44.2-2l8.73-5.24c1.01-.63 2.55-.69 3.49-.19l9.34 5.06c.87.5.87 1.37-.14 1.99h-.06zm-29.69-.56l9.33 5.12c.94.5.88 1.37-.13 2l-8.73 5.24c-1.01.62-2.55.69-3.49.19l-9.41-5.12c-.87-.5-.8-1.37.21-2l8.73-5.24c1-.62 2.55-.69 3.42-.19h.07zm-.73 18.98l-8.73 5.24c-1.01.62-2.55.69-3.49.19l-9.34-5.12c-.94-.5-.87-1.37.14-2l8.73-5.24c1-.62 2.55-.69 3.49-.19l9.33 5.06c.88.5.88 1.37-.13 1.99v.07zm-20.42 6.49l-8.73 5.24c-1.01.62-2.55.69-3.49.19l-9.4-5.12c-.88-.5-.81-1.37.2-2l8.73-5.24c1.01-.62 2.55-.69 3.42-.19l9.41 5.12c.87.5.8 1.44-.2 2h.06zm-46.48 1.93l8.73-5.24c1.01-.62 2.55-.69 3.49-.19l9.34 5.12c.94.5.87 1.38-.14 2l-8.73 5.24c-1 .63-2.55.69-3.49.19l-9.33-5.12c-.94-.5-.88-1.37.13-2zm91-20.22l8.73-5.24c1.01-.63 2.56-.69 3.5-.19l9.33 5.05c.94.5.88 1.38-.13 2l-8.73 5.25c-1.01.62-2.55.68-3.5.18l-9.33-5.05c-.87-.5-.81-1.44.2-2h-.07zm-20.41 6.55l8.73-5.24c1.01-.62 2.55-.68 3.49-.19l14.24 7.74c.87.5.8 1.38-.2 2l-8.73 5.24c-1.01.63-2.56.69-3.43.19l-14.24-7.74c-.94-.5-.87-1.37.14-2zm-10 11.8l8.73-5.24c1.01-.62 2.55-.69 3.49-.19l9.34 5.12c.94.5.87 1.37-.14 2l-8.73 5.24c-1.01.56-2.55.69-3.49.19l-9.34-5.12c-.94-.5-.87-1.37.14-2zm-20.42 6.49l8.73-5.24c1.01-.63 2.55-.69 3.49-.19l14.24 7.74c.88.5.81 1.37-.2 2l-8.73 5.24c-1.01.62-2.55.69-3.42.19l-14.24-7.74c-.88-.5-.81-1.44.2-2h-.07zm-25.06 3.62l8.73-5.24c1.01-.63 2.55-.69 3.49-.19l9.34 5.12c.94.5.87 1.37-.14 2l-8.73 5.24c-1.01.62-2.55.69-3.49.19l-9.34-5.06c-.94-.5-.87-1.37.14-2v-.06zm15.11 8.24l8.73-5.24c1.01-.62 2.56-.69 3.5-.19l9.33 5.06c.94.5.81 1.43-.2 2l-8.73 5.24c-1.01.62-2.55.69-3.49.19l-9.34-5.06c-.87-.5-.87-1.37.14-2h.06z" fill="#242E40"/><path d="M173.06 353.92l39.36 21.16v-14.85l-39.36-21.16v14.85z" fill="#1F2837"/><path d="M204.76 365.09l3.09 1.63v-2.81l-3.09-1.69v2.87zm-13.29-7.11l3.08 1.62v-2.87l-3.08-1.62v2.87z" fill="#356A5F"/><path d="M178.17 350.8l3.02 1.69v-2.87l-3.02-1.63v2.81z" fill="#01A582"/><path d="M319.48 282.14l2.41-3.37-11.15-2.37-2.35 1.31 11.09 4.43z" fill="#F9F9F9"/><path d="M319.47 283.64l2.42-1.25v-3.62l-2.42 1.31v3.56z" fill="#9E99AC"/><path d="M319.48 280.08l-11.08-2.37 11.08 5.93v-3.56z" fill="#DCD8E1"/><path d="M310.88 286.76l2.42-3.37-11.15-2.37-2.35 1.31 11.08 4.43z" fill="#F9F9F9"/><path d="M310.88 288.26l2.42-1.25v-3.62l-2.42 1.31v3.56z" fill="#9E99AC"/><path d="M310.89 284.7l-11.08-2.37 11.08 5.93v-3.56z" fill="#DCD8E1"/><path d="M302.28 291.38l2.42-3.37-11.15-2.37-2.42 1.31 11.15 4.43z" fill="#F9F9F9"/><path d="M302.28 292.88l2.42-1.25v-3.62l-2.42 1.25v3.62z" fill="#9E99AC"/><path d="M302.29 289.26l-11.15-2.31 11.15 5.93v-3.62z" fill="#DCD8E1"/><path d="M293.69 296l2.42-3.37-11.15-2.37-2.42 1.31 11.15 4.43z" fill="#F9F9F9"/><path d="M293.69 297.5l2.35-1.31.07-3.56-2.42 1.25v3.62z" fill="#9E99AC"/><path d="M293.7 293.88l-11.15-2.31 11.15 5.93v-3.62z" fill="#DCD8E1"/><path d="M285.1 300.62l2.41-3.37-11.14-2.38-2.42 1.25 11.15 4.5z" fill="#F9F9F9"/><path d="M285.1 302.11l2.35-1.31.06-3.55-2.41 1.24v3.62z" fill="#9E99AC"/><path d="M285.1 298.5l-11.14-2.38 11.14 6v-3.62z" fill="#DCD8E1"/><path d="M276.49 305.24l2.42-3.37-11.15-2.38-2.42 1.25 11.15 4.5z" fill="#313E54"/><path d="M276.49 306.73l2.35-1.31.07-3.56-2.42 1.25v3.62z" fill="#9E99AC"/><path d="M276.5 303.12l-11.15-2.38 11.15 6v-3.62z" fill="#273143"/><path d="M267.91 309.85l2.35-3.37-11.08-2.37-2.42 1.25 11.15 4.49z" fill="#313E54"/><path d="M267.9 311.35l2.36-1.31v-3.56l-2.36 1.25v3.62z" fill="#9E99AC"/><path d="M267.91 307.73l-11.15-2.37 11.15 5.99v-3.62z" fill="#273143"/><path d="M259.3 314.47l2.35-3.43-11.08-2.31-2.42 1.25 11.15 4.49z" fill="#313E54"/><path d="M259.3 315.97l2.35-1.31v-3.62l-2.35 1.31v3.62z" fill="#9E99AC"/><path d="M259.3 312.35l-11.15-2.37 11.15 5.99v-3.62zm48.82 35.46l71.93-38.58v-9.99l-71.93 38.64v9.93z" fill="#273143"/><path d="M257.28 320.53l50.84 27.27v-9.92l-50.84-27.34v9.99z" fill="#313E54"/><path d="M308.13 337.88l71.92-38.64-50.84-27.27-71.92 38.57 50.84 27.34z" fill="#00735A"/><path d="M384.68 318.66l2.35-1.31-11.08-9.55-2.42 1.24 11.15 9.62z" fill="#313E54"/><path d="M373.54 312.67l11.14 5.99-11.14-9.61v3.62z" fill="#273143"/><path d="M376.09 323.28l2.35-1.31-11.08-9.55-2.42 1.25 11.15 9.61z" fill="#313E54"/><path d="M364.94 317.29l11.15 5.99-11.15-9.61v3.62z" fill="#273143"/><path d="M367.48 327.89l2.35-1.31-11.08-9.55-2.41 1.25 11.14 9.61z" fill="#313E54"/><path d="M356.34 321.9l11.15 6-11.15-9.62v3.62z" fill="#273143"/><path d="M358.89 332.52l2.35-1.32-11.08-9.55-2.41 1.25 11.14 9.62z" fill="#313E54"/><path d="M347.75 326.52l11.15 6-11.15-9.62v3.62z" fill="#273143"/><path d="M350.3 337.13l2.35-1.31-11.08-9.55-2.42 1.25 11.15 9.61z" fill="#313E54"/><path d="M339.16 331.14l11.15 5.99-11.15-9.61v3.62z" fill="#273143"/><path d="M341.7 341.69l2.35-1.25-11.08-9.61-2.42 1.31 11.15 9.55z" fill="#313E54"/><path d="M330.55 335.76l11.15 5.93-11.15-9.55v3.62z" fill="#273143"/><path d="M333.11 346.31l2.35-1.25-11.08-9.61-2.42 1.31 11.15 9.55z" fill="#313E54"/><path d="M321.97 340.38l11.14 5.93-11.14-9.55v3.62z" fill="#273143"/><path d="M324.44 350.93l2.41-1.25-11.08-9.61-2.42 1.31 11.09 9.55z" fill="#313E54"/><path d="M313.36 345l11.08 5.93-11.08-9.55V345z" fill="#273143"/><path d="M422.1 332.08s.6-.13.74-.38c.27-.37.07-.87-.34-1.12l-21.69-11.67c-.4-.25-.94-.07-1.21.31-.27.37-.07.87.34 1.12l21.69 11.67s.27.13.4.13l.07-.06z" fill="#00735A"/><path d="M310.34 367.65c1.54 0 3.02-.37 4.43-1.12l97.65-52.43c1.34-.75 2.14-2 2.14-3.43 0-1.44-.8-2.69-2.14-3.44l-60.78-32.58c-16.99-9.11-38.15-9.11-55.14 0l-74.48 39.95c-1.34.75-2.15 2-2.15 3.43 0 1.44.81 2.69 2.15 3.44l83.95 45.06c1.34.75 2.89 1.12 4.43 1.12h-.06zm13.76-98.18c9.27 0 18.47 2.19 26.73 6.62l60.78 32.58c.81.44 1.28 1.18 1.28 2 0 .81-.47 1.56-1.28 1.99l-97.65 52.44c-2.21 1.18-4.9 1.18-7.05 0l-83.95-45.07c-.8-.44-1.27-1.19-1.27-2s.47-1.62 1.27-1.99l74.48-40.01c8.26-4.44 17.46-6.62 26.73-6.62l-.07.06z" fill="#00735A"/><path d="M362.53 369.4s.6-.12.74-.37c.26-.38.06-.88-.34-1.13l-26.19-14.04c-.4-.25-.94-.06-1.21.31-.27.38-.07.87.33 1.12l26.2 14.05s.26.12.4.12l.07-.06zm-5.3 2.87s.6-.12.74-.37c.27-.38.06-.88-.34-1.13l-26.19-14.04c-.4-.25-.94-.06-1.21.31-.27.38-.07.88.34 1.13l26.19 14.04s.27.12.4.12l.07-.06z" fill="#00735A"/><path d="M313.36 389.75c1.55 0 3.02-.38 4.43-1.06l35.33-18.98c.4-.25.54-.75.34-1.12-.27-.37-.81-.5-1.21-.31l-35.33 18.97c-2.22 1.19-4.9 1.19-7.05 0l-54.6-29.33c-.42-.21-.78-.53-1.02-.93-.25-.39-.39-.85-.39-1.32 0-.94.54-1.75 1.41-2.25l13.43-7.17c.4-.25.54-.75.34-1.13-.27-.37-.81-.5-1.21-.31l-13.43 7.24c-1.41.75-2.29 2.12-2.29 3.62s.88 2.87 2.29 3.62l54.66 29.34c1.35.74 2.89 1.06 4.44 1.06l-.14.06z" fill="#00735A"/><path d="M281.46 275.34l11.28-6.06v-6.68l-11.28 6.12v6.62zm-9.47-5.06l9.47 5.06v-6.62l-9.47-5.05v6.61z" fill="#273143"/><path d="M281.46 268.72l11.28-6.12-9.4-5.05-11.35 6.12 9.47 5.05z" fill="#313E54"/><path d="M296.64 276.34s.6-.13.74-.38c.26-.37.06-.87-.34-1.12l-8.93-4.81c-.4-.25-.94-.12-1.21.31-.27.38-.07.88.33 1.13l8.94 4.8s.27.13.4.13l.07-.06z" fill="#F9F9F9"/><path d="M239.95 297.56l11.28-6.06v-6.61l-11.28 6.05v6.62zm-9.4-5.06l9.4 5.06v-6.62l-9.4-5.05v6.61z" fill="#273143"/><path d="M239.95 290.94l11.28-6.05-9.4-5.06-11.28 6.06 9.4 5.05z" fill="#313E54"/><path d="M255.13 298.62s.61-.12.74-.37c.27-.38.07-.88-.33-1.13l-8.94-4.8c-.4-.25-.94-.07-1.2.31-.27.37-.07.87.33 1.12l8.93 4.81s.27.12.41.12l.06-.06zm14.31 78.77s.27 0 .47-.12l8.6-4.62c.4-.25.54-.75.34-1.13-.27-.37-.74-.5-1.21-.31l-8.6 4.62c-.4.25-.54.75-.34 1.12.14.25.48.38.74.38v.06zm119.75-27.65s.6-.13.74-.38c.27-.37.06-.87-.34-1.12l-21.69-11.67c-.4-.25-.94-.06-1.21.31-.27.38-.07.87.34 1.12l21.69 11.68s.27.12.47.12v-.06zm-151.11-8.43s.27 0 .4-.12l10.54-5.68c.41-.25.54-.75.34-1.13-.27-.37-.81-.5-1.21-.31l-10.54 5.68c-.41.25-.54.75-.34 1.13.14.24.47.37.74.37l.07.06z" fill="#00735A"/><path d="M347.75 274.28s.27 0 .4-.13l12.76-6.86c.4-.25.54-.75.34-1.13-.21-.37-.81-.49-1.21-.31l-12.76 6.87c-.41.25-.54.75-.34 1.12.14.25.47.38.74.38l.07.06z" fill="#004C3C"/><path d="M235.19 338.94c-1.61.88-1.61 2.25 0 3.06 1.61.87 4.17.87 5.71 0 1.61-.87 1.61-2.25 0-3.06-1.61-.87-4.16-.87-5.71 0zm151.11 8.49c-1.62.87-1.62 2.25 0 3.06 1.61.87 4.16.87 5.7 0 1.62-.88 1.62-2.25 0-3.06-1.61-.87-4.16-.87-5.7 0z" fill="#00735A"/><path d="M346.88 381.88l22.16-11.86v-11.17l-22.16 11.92v11.11zm-16.33-8.73l16.32 8.73v-11.11l-16.32-8.8v11.18z" fill="#273143"/><path d="M346.88 370.77l22.16-11.92-16.32-8.74-22.16 11.86 16.32 8.8z" fill="#313E54"/><path d="M419.48 342.94l11.08-5.93v-5.37l-11.08 5.93v5.37zm-16.32-8.74l16.31 8.74v-5.37l-16.31-8.74v5.37z" fill="#273143"/><path d="M419.48 337.57l11.08-5.93-16.32-8.74-11.08 5.93 16.32 8.74z" fill="#313E54"/><path d="M300.65 324.6c16.59 0 41.3-6.86 54.53-19.66 4.9-4.56 8.26-11.55 8.93-18.66.2-1.87-.67-4.75-.87-5.31 0-.56.4-3.06.14-3.99-1.55-5.56-5.11-10.18-10.28-13.42-2.49-4-7.46-6.62-12.42-6.62-.47 0-1.01 0-1.48.06-.25-.1-.48-.25-.67-.43-.14-.13-.27-.25-.41-.31-1.07-.63-2.21-1.25-3.62-1.82l-1.35-.56c-2.88-1.18-5.37-2.24-8.66-2.24-1.55 0-2.82.5-3.89.93-.81.31-1.55.63-2.15.69-.94.06-1.89.12-2.76.12-2.42.07-4.9.19-7.18 1.31-1.08.57-1.88 1.13-2.69 1.69-1.28.87-2.35 1.62-4.03 2.12-1.61.44-2.75.94-3.63 1.69-.67.56-1.2 1.18-1.74 1.81-.47.56-1.01 1.18-1.61 1.68-.41.31-.61.38-.74.5-2.02 1-3.5 2.44-4.91 3.93-.4.38-.73.88-1.14 1.31-.53.69-1.14 1.38-1.74 1.88-.27.25-.54.37-.81.56-.54.37-1.07.68-1.48 1.37-.47.88-.74 1.81-1 2.75-.27 1-.54 1.93-1.08 2.81l-.2.31c-.4.69-.94 1.37-1.41 2.06-1.34 1.93-2.75 3.93-3.42 6.12-1.68 5.3-3.23 10.54-2.69 16.1.33 3.87 2.28 7.99 3.36 10.05.73 1.37 1.54 2.5 2.41 3.37.34.31.94.62 1.55.94.67.31 1.34.68 1.54.93 2.42 3.87 8.67 5.93 17.8 5.93h-.2z" fill="url(#a)"/><path d="M276.41 287.28c.74-2.19 2.08-4.18 3.49-6.18l1.41-2.06.21-.31c.53-.88.8-1.81 1.07-2.75s.54-1.87 1.08-2.75c.47-.75 1-1.12 1.54-1.43.27-.19.54-.31.74-.56.6-.5 1.21-1.19 1.74-1.88.41-.43.74-.87 1.15-1.31 1.47-1.5 2.95-2.93 4.97-3.93.2-.06.33-.19.47-.31.8-.63 1.27-1.19 1.81-1.81.54-.63 1.07-1.31 1.75-1.87.94-.75 2.08-1.25 3.76-1.75 1.68-.44 2.75-1.19 3.96-2.06.8-.56 1.68-1.19 2.75-1.69 2.35-1.18 4.84-1.25 7.26-1.31.94 0 1.88 0 2.82-.12.53 0 1.27-.31 2.08-.63 1.14-.43 2.42-.93 3.76-1 3.69 0 6.18 1.07 9.07 2.31.4.19.87.38 1.34.57 1.41.56 2.55 1.18 3.63 1.81.13.06.26.18.4.31.13.12.4.31.54.37.47 0 1-.06 1.54-.06 5.04 0 10.07 2.68 12.56 6.62 5.24 3.24 8.8 7.92 10.41 13.54.27 1 0 3.43-.14 4 .21.56 1.08 3.49.88 5.42-.74 7.12-4.1 14.17-9 18.79-13.23 12.8-38.08 19.73-54.67 19.73-9.2 0-15.51-2.06-17.86-5.87-.34-.38-1.01-.75-1.55-1-.67-.31-1.28-.62-1.61-.94-.94-.87-1.75-2.05-2.48-3.43-1.08-2.12-3.03-6.24-3.36-10.17-.54-5.62 1-10.86 2.68-16.17l-.2-.12zm6.18 30.08s.27.19.47.38c.4.25 1.01.62 1.75.99 1.54.69 3.76 1.19 6.11 1.13 2.28-.07 4.57-1.19 6.04-2.37 1.48-1.13 2.35-2.06 2.35-2.06s-.2.25-.53.68c-.34.44-.88 1-1.62 1.69-.68.57-1.4 1.09-2.15 1.56.81.08 1.59.33 2.29.75.87.5 1.61 1.18 2.01 1.81.41.62.54 1.12.54 1.12s-.2-.44-.67-1c-.47-.56-1.21-1.06-2.08-1.43-.88-.38-1.75-.63-2.42-.63h-.81c-.87.38-1.88.69-2.88.75-2.29.25-4.57-.12-6.18-.81 2.75 2.62 8.26 4.06 15.91 4.06 16.46 0 40.97-6.81 54-19.48 4.77-4.49 8.06-11.29 8.73-18.22.2-1.87-.81-4.93-.87-5.12-.07-.25-.14-.37-.27-.5-.2-.31-.67-.69-1.14-1-1.01-.62-2.15-1-2.15-1s1.21.13 2.41.63c.47.18.88.43 1.28.75.07-.94.2-2.19 0-2.75-1.48-5.43-4.97-9.92-10.01-13.04 0 0-.6-.38-1.34-.75-.97-.53-2.01-.9-3.09-1.13-1.14-.25-2.42-.37-3.29-.25-.94.07-1.48.38-1.48.38s.47-.44 1.41-.75 2.22-.44 3.56-.25c.94.12 1.88.37 2.62.69-2.55-2.69-6.38-4.44-10.27-4.44-.54 0-1.01 0-1.55.07h-1.61c-1.27 0-2.48 0-3.76.12h-.74c.34.13.67.31.94.44 1.55.87 2.75 2.06 3.49 3.12.34.56.54 1.06.61 1.37.07.38.13.56.13.56s-.2-.81-1-1.74c-.81-.94-2.15-1.94-3.56-2.56-.34-.19-.74-.32-1.08-.44-.37-.11-.75-.2-1.14-.25-.69-.12-1.38-.18-2.08-.19-1.21 0-2.02-.06-2.02-.06-1.01.25-2.89 1.81-4.03 2.75-1.07.93-1.54 1.25-1.88 1.43 0 0-.4.38-1.07.75-.61.38-1.68.88-2.02 1.87-.06.25-.13.44-.06.88 0 .18.13.5.26.81.27.62.68 1.25 1.15 2 .47.68.94 1.49 1.21 2.43.33.87.26 2.12-.14 3-.34.87-.81 1.68-1.14 2.43-.34.75-.54 1.5-.4 2.19.13.68.47 1.06 1.14 1.49.37.2.69.48.94.82.27.31.4.74.54.99.13.32.2.57.33.69.2.25.34.44.54.69.33.43.53.93.67 1.31.2.81.13 1.25.13 1.25s-.2-.44-.6-1c-.2-.31-.47-.63-.87-1-.2-.19-.34-.38-.54-.63-.27-.31-.4-.62-.54-.93-.27-.69-.47-1-1.14-1.37-.38-.22-.72-.49-1.01-.82-.33-.37-.53-.81-.67-1.31-.2-1 .07-1.99.4-2.87.34-.87.74-1.62 1.08-2.43.33-.81.33-1.44.07-2.19-.2-.75-.67-1.43-1.08-2.12-.4-.69-.87-1.37-1.21-2.18-.16-.43-.27-.87-.33-1.31 0-.32 0-.88.2-1.19.27-.81.87-1.31 1.34-1.62.27-.19.47-.32.67-.44-.6 0-1.14 0-1.54.06-1.08.25-2.08 1-2.96 1.75-1.74 1.31-3.89 2-6.11 2-2.42 0-4.36.75-6.44 2.43-.27.19-.54.44-.81.63-1.41 1.06-2.55 1.93-3.02 3.68a9.222 9.222 0 01-2.49 3.99c-.16.16-.34.31-.53.44-.34.25-.68.5-.88.81-.07.16-.14.33-.2.5 0 .19-.13.44-.2.56-.47.94-1.21 1.87-1.95 2.56s-1.61.94-2.42 1.19c-.4.12-.8.25-1.14.37-1.81.81-2.82 2.12-3.63 3.75v.62c0 .31-.13.75-.26 1.19-.07.5-.21 1-.21 1.56 0 .25 0 .56.14.81 0 .25.2.62.27.81.47 1.12 1.41 1.94 2.15 2.5l1.21 1s-.61-.25-1.41-.69c-.81-.44-2.02-1.12-2.76-2.37-.2-.38-.33-.56-.47-.94-.13-.34-.19-.7-.2-1.06-.13.25-.33.56-.47.87-.44.81-.91 1.6-1.41 2.38-1.21 1.74-1.95 2.93-2.62 8.86l.4-.19c.81-.25 1.95-.12 2.76.44.87.5 1.48 1.37 1.81 2 .2.31.27.62.34.81.06.18.13.31.13.31s0-.13-.13-.31c-.07-.19-.27-.44-.47-.75-.41-.56-1.08-1.31-1.88-1.62-.81-.38-1.75-.38-2.29-.07-.19.1-.38.23-.53.38-.14.18-.21.25-.21.25v.56c-.47 4.43 1.01 8.99 4.1 12.79l-.47-.06zm-7.92-13.98c.26 2.75 1.47 6.37 3.29 9.86.67 1.31 1.47 2.37 2.35 3.19.2.18.47.37.87.49-2.69-3.74-3.96-8.11-3.49-12.42.74-7.36 1.54-8.92 2.82-10.79 0-.13.27-.5.4-1.07.24-.68.24-1.43 0-2.12-.27-.75-.94-1.18-1.54-1.31-.61-.12-1.01-.06-1.01-.06s.4-.13 1.01-.13c.6 0 1.54.38 1.94 1.19.27.44.34 1 .41 1.44.13-.19.2-.38.33-.63.47-.81.81-1.68 1.15-2.5.87-1.99 1.74-3.86 3.49-5.18v-.37c0-.31-.07-.69-.2-1.12-.14-.81-.74-1.44-.74-1.38 0 0 .2 0 .47.25.27.19.53.56.74.94.2.37.4.81.53 1.12.2 0 .41-.18.67-.25.41-.18.88-.31 1.28-.43.81-.19 1.48-.38 2.02-.94.67-.69 1.34-1.5 1.74-2.37.07-.13.14-.31.2-.44.07-.25.14-.5.34-.75.27-.37.67-.68 1.07-1 .2-.12.34-.25.47-.37.21-.19.47-.44.68-.69 0-.12.06-.37.06-.56 0-.25 0-.62-.2-1.06-.2-.44-.47-.94-.94-1.25-.2-.19-.47-.25-.74-.31-.27 0-.47 0-.74.06-.27.13-.6.31-.94.5-.33.19-.6.31-1 .5-.81.31-1.55.19-2.09 0-.53-.19-.94-.31-1.27-.44-.34-.12-.47-.18-.47-.18s.2-.07.53-.13c.34-.06.81 0 1.35-.06.53 0 1.14 0 1.61-.19.27-.12.54-.31.87-.5.27-.18.54-.37 1.01-.62-.13-.5-.27-1.06-.2-1.62 0-.63.13-1.25.27-1.69.13-.44.33-.69.33-.69v.75c0 .44.14 1.06.2 1.56.14.56.27 1.06.41 1.31.8.25 1.21.44 1.54.69.6.46 1.05 1.09 1.28 1.81 0 .12 0 .31.06.44.21-.44.41-.82.54-1.25.61-2 1.88-2.93 3.36-4.12.27-.19.54-.38.74-.63 2.22-1.81 4.43-2.62 6.92-2.62 1.47 0 2.75-.25 3.82-.74-.26 0-.6.06-.94.06-.33 0-.73-.13-1.14-.38-.4-.25-.6-.68-.74-1-.27-.62-.47-1.24-.8-1.74-.14-.25-.27-.44-.47-.44-.2 0-.47 0-.67.12-.94.32-1.62.44-1.62.44s.61-.25 1.48-.81c.2-.13.47-.25.87-.25.41 0 .74.31.94.56.14.19.27.44.41.63.33-.94 1.07-1.56 1.61-2.13.13-.12.27-.31.4-.43.14-.19.21-.32.27-.5.14-.38.2-.75.2-1.06 0-.69.07-1.13.07-1.13s.07.44.2 1.13v1.18c0 .19-.13.44-.2.69l-.33.62c-.54.75-1.21 1.31-1.35 1.88-.07.25-.13.5-.13.62.13.62.27.81.47.87.2.13.4.19.67.13.54 0 1.07-.19 1.54-.25.41-.13 1.75-.56 2.35-.69.68-.43 1.35-.87 2.15-1.06.67-.19 1.34-.12 2.02-.12h1.41c.33-.13 1.07-.75 1.74-1.31 2.02-1.63 3.56-2.94 4.57-3.06 1.14-.19 2.28-.13 3.43-.13 1 0 2.01 0 3.02-.12 1.34-.19 2.62-.13 3.89-.13-.94-.62-2.08-1.18-3.35-1.68-.46-.18-.9-.37-1.35-.56-2.89-1.25-5.24-2.19-8.39-2.19-1.41 0-2.62.5-3.63.94-.74.37-.87.43-1.14.56-.2.12-.47.31-.81.44-.27.18-.6.37-.87.56-.54.37-1.01.93-1.34 1.43-.34.44-.61.75-.61.75s.14-.37.34-.87.6-1.25 1.14-1.81l.34-.31c-.74 0-1.55.12-2.29.12-2.41.06-4.7.13-6.85 1.25-1 .5-1.81 1.06-2.62 1.62-1.27.88-2.41 1.69-4.29 2.19-1.48.43-2.56.87-3.43 1.56-.6.5-1.07 1.06-1.61 1.68.33.07.94-.06 1.54-.12.54 0 1.14 0 1.61.18.45.17.87.42 1.21.75.27.32.47.57.61.82.13.18.2.31.2.31l-.27-.25c-.13-.19-.4-.38-.74-.56-.67-.44-1.61-.57-2.55-.38-.94.19-1.88.63-2.55.88-.74.31-1.21.43-1.21.43-.2 0-.34.13-.4.19-1.95 1-3.36 2.37-4.71 3.74-.4.38-.73.82-1.14 1.25-.6.69-1.21 1.44-1.88 2-.27.25-.6.44-.87.62-.54.32-.94.57-1.21 1.13-.47.81-.67 1.68-.94 2.56-.27 1-.6 2.06-1.21 2.99l-.2.31c-.47.69-.94 1.38-1.41 2.13-1.34 1.87-2.69 3.87-3.36 5.93-1.68 5.24-3.15 10.36-2.68 15.85v.25zm51.71-30.9l-.54.5c-.4-.43-.8-.62-1.21-.87-.33-.2-.65-.43-.94-.69-.2-.25-.34-.43-.34-.43s0 .25.21.56c.13.31.47.68.8 1 .34.31.61.68.74.87-.2 1.06-.6 1.81-.54 2.68-.13 0-.33-.12-.46-.12-.41-.06-.88 0-1.15.12-.27.13-.4.32-.4.32s.13-.13.47-.19c.27 0 .67 0 1.01.19.33.18.6.43.74.62.45.69.99 1.32 1.61 1.87.74.63 1.21 1.25 1.54 2.19.34.93.54 2 1.01 3.06s1.01 1.87.54 2.55c-.47.88-1.28 1.19-2.42 1.57-.27.12-.61.18-.81.37-.33.19-.53.37-.8.56-.4.44-.74.81-1.08 1-.33.19-.87.25-1.47.69-.41.31-.81.68-1.15 1.06-.67.68-1.27 1.43-1.88 2-.93.96-2.08 1.69-3.35 2.12-.47.12-.81.25-1.08.31s-.4.12-.4.12h.4c.27 0 .67 0 1.14-.12.47-.13 1.08-.25 1.75-.56.67-.32 1.34-.75 2.01-1.31.68-.56 1.35-1.25 2.02-1.88.33-.31.67-.62 1.14-.93.27-.19.74-.25 1.34-.56.61-.38.94-.81 1.35-1.13.33-.31.67-.5 1.21-.68.47-.19 1.07-.32 1.67-.63.27-.12.54-.31.74-.56.27-.12.61-.19 1.01-.19s.81.13 1.14.25c.27.13.47.31.47.31s-.13-.18-.33-.43c-.31-.28-.68-.5-1.08-.63-.13 0-.33-.06-.54-.12.47-.69.54-1.56.34-2.19.13-.49.4-.74.61-1.06.46-.62.8-1.56 1-2.43.2-.88.47-1.69.74-2.31.27-.62.54-1 .54-1s-.4.25-.88.81a6.1 6.1 0 00-1.14 2.31c-.26.88-.53 1.69-.87 2.19-.13.18-.2.31-.34.43-.06-.18-.13-.31-.2-.5-.4-.93-.6-1.93-1-2.99-.34-1.06-1.15-2-1.88-2.56-.74-.63-1.35-1.19-1.42-1.81-.13-.63.14-1.25.47-1.81.07-.13.21-.31.27-.44 0-.12.14-.19.21-.31.2-.25.33-.44.47-.63.6-.93.47-1.62.47-1.55 0 0-.14.12-.27.31l-.81.75-.4-.07zm-20.15 19.23s.47-.06.94-.06c.2 0 .54-.13.81-.38.13-.12.26-.25.33-.44.27.32.61.63.94 1.07.47.56 1.01 1.18 1.48 1.93.27.37.47.75.6 1.12.21.44.27.75.21 1.19-.21.93-.47 1.93-.81 2.81-.27.87-.67 1.68-.87 2.43-.2.75-.2 1.44-.14 1.88.07.43.2.68.2.68s-.13-1.06.47-2.37c.27-.69.68-1.44 1.01-2.37.34-.94.61-1.88.87-2.87.14-.56 0-1.25-.2-1.75-.19-.46-.44-.9-.74-1.31-.47-.72-1.01-1.38-1.61-2-.67-.75-1.27-1.25-1.54-1.5v-1c0-.12.13-.37.2-.49.07-.13.34-.32.47-.88.13-.44 0-.87-.07-1-.06-.25-.2-.43-.33-.68.2 0 .4-.07.6-.13 2.08-.62 3.16-1.68 3.16-1.68l-.88.31c-.6.19-1.41.44-2.41.56-.49.06-.99.06-1.48 0-.4 0-.87-.44-1.21-.87-.4-.44-.74-1-1.01-1.63-.27-.62-.53-1.18-.6-1.81-.14-1.31.13-2.68.54-3.87.4-1.25 1-2.31 1.61-3.18.54-.87 1.07-1.62 1.41-2.12.33-.5.54-.81.54-.81s-1.21.81-2.49 2.55c-.6.88-1.34 1.94-1.81 3.25-.54 1.25-.94 2.75-.81 4.31.07.81.34 1.56.67 2.18.34.63.74 1.25 1.14 1.81.34.38.74.75 1.21.94 0 0 .14.12.34.25.2.12.47.31.54.5 0 .06.13.25.2.43.07.25.07.38.07.38s-.14.12-.34.44c-.2.31-.34.62-.34.99 0 .44 0 .69.07.94 0 .25.07.5.07.69 0 .19 0 .25-.07.31 0 .06-.13.19-.33.25-.34.19-.74.37-.88.62-.2.19-.2.38-.2.38s.13 0 .34-.13l.13.13zm44.66-9.18c.81.63 1.34 1 1.34 1s-.4-.5-1.07-1.25c-.34-.37-.74-.81-1.28-1.18-.53-.38-1.14-.75-1.88-.94-.2-.75-.27-1.25-.27-1.93 0-.69.07-1.31.68-1.94.53-.62 1.34-1.25 1.67-2.18.21-.44.27-.94.27-1.38 0-.43 0-.93-.13-1.31-.14-.87-.4-1.62-.6-2.24-.27-.7-.52-1.41-.74-2.13 0 0 .13.88.47 2.19.13.62.33 1.43.47 2.25v1.24c0 .44-.14.81-.34 1.19-.34.75-1.01 1.31-1.61 2-.3.34-.53.75-.67 1.18-.14.44-.14.81-.14 1.19 0 .69.14 1.25.14 1.68h-1.35c-.67 0-1.41.19-1.88.5-.2 0-.2 0-.2-.18 0-.82-.07-1.56-.2-2.25s-.2-1.25-.2-1.94c-.14-1.24.13-2.31.33-3.3.21-1 .48-1.88.68-2.63.4-1.43.53-2.31.53-2.31s-.4.75-1 2.13c-.27.68-.68 1.56-1.01 2.56-.2.56-.4 1.24-.47 1.99-.29-.53-.6-1.05-.94-1.56-.54-.87-1.21-1.68-1.81-2.18-.61-.5-1.08-.69-1.08-.69s.47.25 1.01.81c.54.57 1.07 1.44 1.48 2.31.47.88.8 1.81 1.07 2.56 0 .19.13.31.2.44 0 .62 0 1.37.2 2 .14.68.21 1.31.21 1.99 0 1.38-.54 2.81-1.35 4.12-.47.81-.67 1.13-1.48 1.44-.33.12-.6.31-.94.56-.13 0-.2 0-.4.06-.2 0-.47.06-.81.13-.67 0-1.47-.07-2.01-.63-.13-.18-.2-.25-.34-.5-.06-.12-.13-.37-.2-.56a4.8 4.8 0 00-.53-1.18c-.21-.38-.54-.56-.81-.56h-.34s.14 0 .34.12.34.31.4.62c.07.32.14.75.2 1.19 0 .25 0 .44.14.75 0 .25.27.56.4.75.34.43.87.81 1.41 1 .54.12 1.08.12 1.48.12-.87 1.75-1.54 3.25-2.69 4.5-1.81 2.06-4.43 3.18-6.98 4.43 0 0-.47 0-1.01.18-.27 0-.47.07-.74 0-.13 0-.27 0-.47-.12-.13 0-.27-.06-.4-.19-.54-.31-.74-1.06-.6-1.56 0-.56.26-.93.26-.93s-.33.25-.6.81c-.27.56-.27 1.56.4 2.3.14.19.41.32.54.44.13.06.33.13.47.19-1.34.81-2.55 1.75-3.49 2.87-1.01 1.31-1.68 2.62-2.35 3.75-.32.54-.68 1.06-1.08 1.56s-.74 1.06-1.01 1.56c-.2.31-.26.62-.4.93-.13 0-.33.07-.47.07-.2 0-.4 0-.67-.13-.31-.13-.6-.3-.87-.5-.34-.19-.67-.44-1.14-.44-.41 0-.81.13-1.08.32-.47.37-.67.75-.67.75s.34-.25.81-.44c.26-.06.53-.13.73 0 .27.06.47.31.74.5.27.25.54.5.88.69.33.18.8.24 1.14.18-.07.19-.2.44-.27.63-.34.68-.74 1.18-.87 1.62-.21.37-.27.62-.27.62s.2-.12.53-.43c.34-.25.81-.69 1.35-1.38.27-.31.53-.75.74-1.18.2-.44.4-.88.6-1.38.27-.43.54-.93.87-1.37.27-.31.54-.69.81-1.06.4-.31.4-.31.67-.44.4-.18 1.14 0 1.75.38.6.43 1.01 1.06 1.14 1.62v.69c-.07.25.13-.13.13-.69 0-.62-.4-1.37-.94-1.93-.53-.5-1.21-.82-1.88-.82.61-.99 1.21-2.06 1.95-2.93.94-1.06 2.22-2 3.63-2.81 1.41-.81 3.02-1.5 4.56-2.31.94-.44 1.82-1 2.69-1.68.27 0 .47 0 .67.12.47.31.94 1.12 1.21 1.94 0 .25.07.37.07.62 0 .19 0 .37-.07.62-.13.44-.27.88-.34 1.25-.13.38-.13.75-.06.94v.37s.06-.5.47-1.18c.2-.31.47-.69.67-1.19.07-.25.2-.5.27-.81v-.87c-.2-1.13-.74-2.12-1.55-2.62 0-.38.2-.57.41-.82 1-1.12 1.74-2.49 2.35-3.74.4.25 1 .44 1.61.56.67.13 1.48.19 2.28.31.41 0 .81.13 1.21.19.4.06.74.19 1.01.37.27.19.4.5.6.88.14.19.2.37.41.62.13.13.26.32.47.5.8.63 1.74.69 2.41.63.67 0 1.28-.13 1.68-.13h.61l-.61-.19c-.4-.12-.94-.18-1.61-.25-.67-.12-1.34-.24-1.81-.74-.07-.13-.2-.25-.34-.44-.07-.13-.2-.31-.27-.5-.13-.25-.27-.56-.53-.87v-.5c0-.38.47-.82 1.07-1.13 1.14-.68 2.48-.87 2.48-.87s-1.34 0-2.68.44c-.67.25-1.34.68-1.61 1.31-.34 0-.67-.19-.94-.25-.47-.13-.94-.19-1.35-.25-.87-.13-1.61-.19-2.28-.25-.6-.07-1.14-.25-1.34-.38.4-.75.74-1.18 1.47-1.5.34-.18.88-.37 1.21-.81.41-.43.54-.81.74-1.12.47-.81.87-1.68 1.08-2.56l.26-.37c.14-.19.41-.44.81-.69.44-.24.92-.39 1.41-.44h1.88c1.28.13 2.35.94 3.09 1.56v.25zm-48.62 16.54c.87.25 1.68.63 2.28 1.06.61.44 1.01.94 1.34 1.25l.41.56s0-.24-.2-.74c-.21-.65-.58-1.23-1.08-1.69-.6-.62-1.48-1.12-2.42-1.44-.47-.12-.94-.31-1.47-.43-.47-.19-.94-.38-.88-.5 0-.38.14-1.06.07-1.62 0-.57-.13-1.13-.2-1.63-.27-1.06-.54-1.93-.87-2.68-.68-1.5-1.21-2.44-1.21-2.44l.2.75c.13.44.4 1.13.6 1.88.2.75.47 1.68.61 2.68 0 .5.06 1 .06 1.5 0 .56-.13.93-.13 1.68 0 .44.34.88.6 1 .27.19.54.25.81.38.47.18 1.01.31 1.48.5v-.07zm-12.36 5.18c-.54.07-.87.19-.87.19h.87c.54 0 1.21.06 1.88.19.61.12 1.21.31 1.55.56.6 1 1.34 1.81 2.21 2.37.27.19.61.38.94.44.27.06.67.19.94.19.61 0 1.21 0 1.75-.07 1.07-.18 1.88-.5 2.48-.68.61-.19.94-.32.94-.32h-.94c-.6 0-1.47.13-2.41.13-.47 0-1.01 0-1.55-.13-.25-.05-.5-.13-.74-.24-.27-.13-.47-.19-.67-.38a9.236 9.236 0 01-2.35-2.81c-.34-.56-.54-1.12-.74-1.81-.2-.62-.27-1.25-.33-1.93-.07-1.2.04-2.4.33-3.56.27-1.06.54-1.87.74-2.5.2-.56.4-.93.4-.93s-.2.31-.53.87c-.46.77-.82 1.58-1.08 2.43-.33 1.06-.67 2.31-.67 3.75 0 .69 0 1.44.2 2.12.14.63.34 1.38.67 2-.33 0-.67-.06-.94-.06-.74 0-1.48 0-1.95.12l-.13.06zm19.27 13.42c.48.13 1.15.25 2.09.38 1.81.19 4.5.06 7.58-.56 1.55-.38 3.3-.57 5.04-1.38 1.75-.81 3.36-1.87 5.11-2.93 1.76-1.08 3.52-2.14 5.3-3.18.67-.13.81-.13.94 0 .14.06.34.31.41.62.06.19.13.31.13.44v.5c-.2.68-.94 1.25-1.41 1.75-.47.49-.67.87-.67.87s.27-.31.87-.69c.27-.18.61-.37.94-.62.34-.25.74-.56.94-1.06.13-.23.2-.49.2-.75v-.75c0-.25-.13-.44-.26-.63-.14-.18-.27-.37-.41-.49 1.35-.69 2.71-1.33 4.1-1.94 3.89-1.69 7.92-3.43 10.94-6.18 1.08-.94 1.89-2.06 2.62-3.12-.4 1.44-.4 3.25-1.07 4.93-.4 1-1.14 1.75-1.95 2.31-.8.56-1.68 1.06-2.35 1.56-.67.5-1.21.94-1.48 1.31-.33.38-.4.63-.4.63s.14-.25.47-.63a6.7 6.7 0 011.55-1.25c.67-.43 1.61-.81 2.48-1.37.94-.56 1.75-1.37 2.15-2.43.87-2.06.74-4.25 1.41-5.62.27-.69.67-1.31.87-1.69.74-1.24 1.35-2.43 1.68-3.62.81-2.93 1.01-5.49.94-7.24 0-.87-.2-1.56-.27-1.99-.13-.44-.2-.69-.2-.69s0 .25.14.69c.06.43.2 1.12.13 1.99 0 1.63-.4 3.93-1.14 6.62 0-.81-.13-1.87-.34-2.94-.2-1.06-.87-1.93-1.07-2.68-.2-.75-.27-1.25-.27-1.25s-.13.56.07 1.31c.13.81.67 1.75.87 2.75.2 1 .27 2.06.27 2.81 0 .37 0 .69.07.94-.47 1.24-1.28 2.49-2.15 3.8-1.08 1.44-2.08 3-3.49 4.25-1.55 1.37-3.3 2.43-5.24 3.43v-.75c0-.44-.14-.94-.34-1.5-.13-.25-.2-.5-.4-.75s-.4-.37-.67-.62c-.47-.31-1.08-.5-1.48-.75-.47-.19-.81-.56-1.01-.87-.33-.75-.27-1.38-.27-1.38s-.13.56.14 1.44c.13.44.47.81.94 1.12.47.31.94.5 1.34.88.14.12.4.37.47.56.14.19.2.44.27.68.13.44.13.94.13 1.32 0 .37 0 .68-.13.93-1.54.94-3.09 1.62-4.57 2.25-1.94.87-3.89 1.81-5.77 2.87-1.77 1.03-3.51 2.09-5.24 3.18-.07 0-.54 0-1.28.07-.74 0-1.81.12-2.75 0-.94-.13-1.88-.69-2.75-.63-.88 0-1.28.5-1.28.44 0 0 .13 0 .34-.13.2 0 .53-.06.87 0 .33.07.74.25 1.14.5.2.13.47.19.67.32.27.12.47.18.74.25.94.24 1.95.24 2.69.18-1.21.75-2.35 1.5-3.5 2.06-1.61.81-3.29 1.06-4.83 1.5-3.09.75-5.71 1.06-7.52.94-.7 0-1.4-.08-2.09-.25v-.07zm23.98-47.06c.4 1.06.74 1.81.74 1.81s-.13-.75-.34-1.93c-.2-.94-.47-2.13-1-3.31 0-.13 0-.31-.07-.5-.07-.44-.2-1.06-.27-1.62 0-.56.07-1.19.27-1.56.2-.44.4-.63.4-.63s-.2.19-.47.63c-.27.37-.47 1-.54 1.62v.75c-.8-1.19-2.14-1.94-3.22-2.06-1.21-.19-2.01.12-2.01.06 0 0 .8 0 1.81.5.54.25 1.07.56 1.54 1 .47.5.88 1.06 1.35 1.62.4.63.8 1.25 1.07 1.87.31.59.58 1.19.81 1.81l-.07-.06z" fill="#019D7C"/><path d="M347.41 605.9c5.92-.01 11.75-1.44 16.99-4.18l37.07-19.91c2.02-1.07 3.23-3.06 3.23-5.19 0-2.12-1.21-4.11-3.23-5.18l-52.51-28.15c-.74-.37-.81-1.06-.81-1.37 0-.31.07-.94.81-1.37l20.75-11.18c1.54-.81 2.48-2.3 2.48-3.99 0-1.68-.94-3.12-2.48-3.99l-7.12-3.81c-1.61-.88-2.62-2.5-2.62-4.18v-51.25c0-4.43-2.55-8.61-6.71-10.86l-5.31-2.81c-1.01-.56-2.35-.25-2.89.75-.6.94-.27 2.12.81 2.69l5.3 2.8c2.82 1.57 4.64 4.37 4.64 7.43v51.25c0 3.12 1.81 6.05 4.77 7.61l7.18 3.81s.34.44.34.56c0 .13 0 .38-.34.56l-20.75 11.17c-1.88 1-2.95 2.81-2.95 4.75 0 1.93 1.07 3.74 2.95 4.74l52.52 28.15c1.01.5 1.07 1.44 1.07 1.75 0 .31-.13 1.25-1.07 1.75l-37.07 19.91c-9.14 4.93-20.49 4.93-29.69 0L293.42 577c-.49-.28-1.06-.35-1.6-.21-.54.14-1 .48-1.29.96-.6.93-.27 2.12.81 2.68l39.35 21.16c5.24 2.81 11.08 4.18 16.99 4.18l-.27.13z" fill="#00735A"/><path d="M328.01 504.35l2.75-1.5v1l-2.75 1.43v-.93zm2.75-3.12l-.94.49v-.99l.94-.5v1zm-2.75-2.13l2.75-1.49v.99l-2.75 1.44v-.94zm2.75-3.12l-.94.5.07-1 .87-.43v.93zm-2.69-2.12l2.69-1.44v.94l-2.69 1.44v-.94zm-2.14 2.12v-1l.74-.37v.94l-.74.43zm2.55 1.19l-2.62 1.43v-.93l2.62-1.44v.94zm-1.81 8.86l-.81.44v-1l.81-.44v1zm-.81 2.06l2.62-1.37v.93l-2.62 1.44v-1zm2.62-5.68l-2.62 1.44v-1l2.62-1.37v.93zm-2.62-2.18l.81-.44v1l-.81.44v-1zM440.04 439l8.52-4.62v1l-8.52 4.55V439zm3.08-4.31l2.28-1.19v.94l-2.28 1.25v-1zm15.72-.56l2.08-1.13v1l-2.08 1.13v-1zm-2.62-1.19l4.7-2.56v1l-4.7 2.5v-.94zm4.7 2.68v1l-4.7 2.5v-1l4.7-2.5zm-15.52 3.13v.93l-2.28 1.25v-1l2.28-1.18zm1.35.18V438l3.76-2v.94l-3.76 1.99zm-2.22 3.81l-4.5 2.44v-.94l4.03-2.18 9-4.81v.94l-8.53 4.55zm3.02.07v.99l-4.43 2.38v-1l4.43-2.37zm5.51-9.87l-3.15 1.69.06-.94 3.09-1.69v.94zm4.43 2.87l-3.09 1.63v-.94l3.09-1.62v.93zm-5.64-.56l3.02-1.62v1l-3.02 1.62v-1zm3.02 3.62v.94l-3.02 1.68v-1l3.02-1.62zm2.62-8.3l-3.02 1.68v-1l3.02-1.62v.94zm-19.74 7.05l4.03-2.18v1l-4.03 2.12v-.94zm0 3.56v-.93l.94-.57v1l-.94.5zm17.12-12.79v.99l-3.02 1.63v-1l3.02-1.62zm-8.06 4.36l3.7-1.99v.93l-3.7 2v-.94zm12.03-9.11l2.08-1.06v.94l-2.08 1.12v-1zm-17.06 23.22l-4.03 2.19v-1l4.03-2.12v.93zm-3.09-.94l-.94.5v-.93l.94-.56v.99zm-.94-9.98V435l.94-.5v.94l-.94.5zm16.72-8.93v-1l3.02-1.62v1l-3.02 1.62zm4.37 1.87l2.08-1.12v1l-2.08 1.12v-1zm-2.55-1.18l4.63-2.56v1l-4.63 2.5v-.94zm-11.56 4.49v-.93l8.4-4.5v.94l-8.4 4.49zm-4.69 2.5v-.94l3.36-1.81v1l-3.36 1.75zm10.47 6.55v.94l-1.62.87v-.93l1.62-.88zm-8.73-.56v.94l-4.03 2.18v-.93l4.03-2.19zm-35.94 28.02c3.22 0 7.32-4.11 8.59-5.49 1.88-2 3.97-3.68 6.32-4.93 3.29-1.81 6.24-3.99 8.33-6.24 2.21-2.37 2.82-5.87 1.2-7.18-2.55-2.06-9.47-4.37-17.46 1.5-7.45 3.18-10.14 10.74-10.27 16.23 0 2.99.74 5.3 1.95 5.87.4.18.87.24 1.34.24zm17.33-25.77c3.15 0 5.64 1.12 6.91 2.18 1.41 1.12.81 4.43-1.27 6.68-2.02 2.18-4.97 4.43-8.26 6.18-2.36 1.31-4.57 2.99-6.45 4.99-3.02 3.25-7.05 6.24-9.47 5.18-1.08-.5-1.75-2.74-1.75-5.55.07-5.43 2.76-12.8 10.08-15.92 3.76-2.74 7.25-3.68 10.14-3.68l.07-.06z" fill="#757981"/><path d="M417.12 455.6l2.89-1.56.4 1.18 2.82-1.56-3.15-7.61-3.16 1.68-3.15 10.99 2.88-1.56.41-1.63.06.07zm1.48-5.56l.81 2.19-1.55.81.81-3h-.07zm-5.37-.25l-2.69 1.44v9.3l2.69-1.44v-9.3zm-5.45 18.23h.54c-.87-.25-1.95-.31-2.35-1.31 0 1.12 1.01 1.31 1.81 1.31zm-3.09-13.24c.74-.56 1.61-1.24 2.49-1.56-1.08 0-1.95.69-2.62 1.25 0 .31.06.31.13.31zm21.56-.18c-.2-1.06-.87-1.44-1.35-1.62.54.62.95 1 1.21 1.5 0 .06.14.12.21.12h-.07zm-4.16-9.12c.61-.81 1.28-1.81 2.15-2.55-1.14.49-1.88 1.56-2.28 2.24.07.25.13.25.13.25v.06zm-6.45 1.13c-.54-.81-1.41-.81-2.02-.75.61.31 1.35.31 1.88.69h.14v.06zm9.48-.75c.67-.69 1.48-1.62 2.35-2.18-1.14.31-1.95 1.24-2.48 1.93.06.25.13.31.13.31v-.06zm-12.16 18.79c1.68-.69 5.77-2.63 8.46-6.74-2.95 3.8-6.92 5.74-8.53 6.36-.07.31 0 .31.07.31v.07zm42.65-119.03l7.18-3.87v-7.68l-7.18 3.81v7.74z" fill="#757981"/><path d="M251.88 1.52c4.22 2.37 7.68 7.69 7.68 11.81 0 1.63-.52 2.82-1.41 3.51l19.26 27.32V30.78c-3.97-2.57-7.1-7.51-7.1-11.44 0-4.13 3.45-5.57 7.68-3.19 4.22 2.37 7.68 7.69 7.68 11.81 0 1.63-.52 2.82-1.41 3.51l11 15.63 4.48-5.13c-1.98-2.5-3.26-5.44-3.26-8 0-4.13 3.45-5.57 7.68-3.19 4.22 2.37 7.68 7.69 7.68 11.82 0 1.62-.52 2.81-1.41 3.5l6.78 9.69 6.79-2c-.9-1.75-1.41-3.5-1.41-5.13 0-4.13 3.45-5.56 7.68-3.19 4.22 2.38 7.68 7.69 7.68 11.82 0 1.62-.52 2.81-1.41 3.5l6.78 9.69 6.78-2c-.89-1.75-1.4-3.5-1.4-5.13 0-4.12 3.45-5.56 7.67-3.19 4.23 2.38 7.68 7.69 7.68 11.82 0 1.63-.51 2.82-1.4 3.5l6.78 9.7 6.78-2.01c-.9-1.75-1.41-3.5-1.41-5.12 0-4.13 3.46-5.57 7.68-3.19 4.23 2.37 7.68 7.69 7.68 11.82 0 1.62-.51 2.81-1.41 3.5l6.79 9.69 6.78-2c-.9-1.75-1.41-3.5-1.41-5.13 0-4.13 3.46-5.57 7.68-3.19 4.22 2.38 7.68 7.69 7.68 11.82 0 1.62-.51 2.81-1.41 3.5l6.78 9.69 6.79-2c-.9-1.75-1.48-3.56-1.48-5.19 0-4.13 3.46-5.56 7.68-3.19 4.23 2.38 7.68 7.69 7.68 11.82 0 2.56-1.28 4.06-3.26 4.25l4.48 10.13 11-3.25c-.89-1.75-1.4-3.5-1.4-5.13 0-4.12 3.45-5.56 7.68-3.19 4.22 2.38 7.67 7.69 7.67 11.82s-3.13 5.38-7.1 3.44v13.38l19.26-5.63c-.89-1.75-1.41-3.5-1.41-5.12 0-4.13 3.46-5.57 7.68-3.19 4.23 2.37 7.68 7.69 7.68 11.81 0 4.13-3.45 5.57-7.68 3.19-1.24-.71-2.36-1.62-3.32-2.69l-18.62 21.45c2.11 2.56 3.58 5.69 3.58 8.32 0 4.12-3.46 5.56-7.68 3.18-1.22-.68-2.37-1.62-3.39-2.75l-18.5 21.32c2.12 2.5 3.53 5.63 3.53 8.26 0 4.12-3.46 5.56-7.68 3.19-1.22-.69-2.44-1.69-3.46-2.76l-18.3 21.08c2.05 2.5 3.33 5.5 3.33 8.06 0 4.13-3.46 5.57-7.68 3.19-1.15-.69-2.24-1.56-3.27-2.56l-18.49 21.32c2.05 2.5 3.39 5.5 3.39 8.13 0 4.12-3.45 5.56-7.68 3.18-4.22-2.37-7.67-7.69-7.67-11.81 0-1.69.57-2.88 1.53-3.63l-6.91-9.82-6.91 2.01c.96 1.81 1.54 3.68 1.54 5.37 0 4.13-3.46 5.57-7.68 3.19-4.23-2.38-7.68-7.69-7.68-11.82 0-2.56 1.34-4.12 3.39-4.31l-18.49-42.2a8.61 8.61 0 01-3.27-1.13c-4.22-2.38-7.68-7.69-7.68-11.82 0-2.56 1.35-4.12 3.39-4.31l-18.3-41.7a7.545 7.545 0 01-3.45-1.13c-4.22-2.38-7.68-7.69-7.68-11.82 0-2.62 1.41-4.19 3.52-4.31l-18.49-42.21c-1.03-.06-2.18-.43-3.4-1.12-4.22-2.38-7.67-7.69-7.67-11.82 0-2.69 1.4-4.19 3.58-4.31l-18.62-42.46c-1.03-.06-2.18-.43-3.33-1.12-4.22-2.38-7.68-7.69-7.68-11.82s3.46-5.56 7.68-3.19l-.51.38zm209.12 163c.83.56 1.66 1.19 2.43 1.94l18.62-21.45c-.38-.5-.77-1-1.09-1.5L461 149.39v15.13zm-18.11-32.14l-7.62 2.25 7.62 10.82 3.84-4.38-3.84-8.69zm.32 15.07l-2.94 3.38-1.8 2.06c.32.44.64.81.96 1.25l7.04-2.06-3.26-4.69v.06zm4.16 4.38l3.58-1.07-3.58-8.19-3.59 4.13 3.59 5.06v.07zm7.55-23.01l-11.14 3.25 3.59 8.19 8.64-9.94c-.39-.5-.77-1-1.09-1.5zm4.86 4.94c-.96-.63-1.92-1.38-2.75-2.32l-3.33 3.82-5.69 6.5 3.84 8.69 7.93-2.31v-14.45.07zm-2.43 29.26c.77.12 1.6.37 2.43.81V149.7l-7.36 2.13 4.87 11.13.06.06zm-5.82-10.88l-3.27.94 7.04 10.06s.64-.18.96-.18l-4.73-10.82zm-16.64 42.39c.9.56 1.73 1.25 2.5 2l18.55-21.32c-.38-.5-.77-1-1.09-1.5l-19.96 5.88v15-.06zm0-16.57l19.2-5.63c-.83-1.68-1.35-3.43-1.35-5.06 0-1.81.71-3.06 1.79-3.75l-7.16-10.13-7.17 2.13c1.09 1.93 1.79 3.93 1.79 5.75 0 3.94-3.13 5.37-7.1 3.44v13.25zm0-28.13c.83.56 1.66 1.18 2.43 1.93l1.86-2.19 3-3.43-7.29-10.45v14.14zm0-16.7l7.29-2.13-4.54-10.44c-.83-.06-1.79-.37-2.75-.81v13.38zm-21.18-27.57c-.32.12-.7.25-1.09.25l4.48 10.13 3.26-.94-6.65-9.5v.06zm10.24 26.13l1.79 4.13 7.61-2.25-7.61-10.82-3.84 4.38 1.98 4.56h.07zm-2.69-3.75l-3.58 4.13 3.58 5.06 3.58-1.06-3.58-8.13zm4.16 9.51l-3.26.93 7.03 10.07s.65-.19.96-.19l-4.73-10.81zm3.33 21.5l-11.07 3.26 3.58 8.12 8.58-9.88c-.39-.5-.77-1-1.09-1.5zm-11.07 17.95l3.58 5.06 3.58-1.06-3.58-8.13-3.58 4.13zm-.58.69l-4.67 5.37.96 1.32 6.97-2.07-3.26-4.62zm3.46-6.44l-3.78-8.69-7.61 2.25 7.61 10.81 3.84-4.37h-.06zm-3.52-10.32l10.94-3.19c-.9-1.69-1.41-3.44-1.41-5.06 0-1.82.71-3.07 1.79-3.75l-7.16-10.13-7.17 2.12c1.09 1.94 1.79 3.94 1.79 5.75 0 2.5-1.28 4.01-3.2 4.26l4.42 10.06v-.06zm-3.78-21.38l7.04-2.07-3.26-4.62-4.74 5.44c.32.37.64.81.96 1.25zm7.3-13.13l-3.78-8.69-7.61 2.25 7.61 10.81 3.84-4.37h-.06zm-2.88-8.95l3.58 8.13 3.58-4.12-3.58-5.07-3.58 1.06zm11.13-3.25l-6.65 1.94 3.26 4.63 4.48-5.13c-.38-.5-.77-.94-1.09-1.5v.06zm4.86 4.94c-.96-.62-1.92-1.37-2.75-2.25l-4.54 5.25 7.29 10.38v-13.38zm0 16.01l-7.36 2.13 4.87 11.13c.85.13 1.67.41 2.43.81v-14.13l.06.06zm0 28.95c-1.02-.63-1.92-1.44-2.81-2.32l-8.96 10.32 3.78 8.69 7.93-2.31v-14.32l.06-.06zm-2.49 29.01c.87.15 1.71.42 2.49.81v-14l-7.36 2.12 4.8 11.01.07.06zm-5.76-10.75l-3.26.93 6.97 9.94s.64-.18.96-.18l-4.67-10.69zm-16.57 41.82c.96.63 1.85 1.32 2.62 2.19l18.3-21.13c-.38-.51-.75-1.03-1.09-1.56l-19.83 5.81v14.69zm0-16.19l19.13-5.63c-.83-1.69-1.34-3.37-1.34-4.94 0-1.75.64-3 1.72-3.69l-7.1-10.06-7.1 2.06c1.09 1.88 1.73 3.88 1.73 5.63 0 3.94-3.14 5.38-7.04 3.44v13.19zm0-28.01c.89.56 1.72 1.19 2.49 2l4.8-5.56-7.29-10.38v13.94zm0-16.57l7.29-2.13-4.54-10.31c-.83-.06-1.79-.31-2.82-.81v13.25h.07zm0-28.14c.83.57 1.66 1.19 2.43 1.94l4.86-5.63-7.29-10.37v14.06zm0-16.69l7.29-2.12-4.61-10.45c-.83-.06-1.72-.37-2.75-.81v13.38h.07zM382.8 90.36v13.38l7.3-2.12-4.55-10.44c-.83-.07-1.72-.38-2.75-.82zm8.26 100.42l10.87-3.19c-.83-1.69-1.34-3.38-1.34-4.94 0-1.81.64-3 1.73-3.69l-7.04-10.06-7.1 2.06c1.02 1.87 1.72 3.87 1.72 5.63 0 2.5-1.27 4-3.13 4.25l4.35 9.94h-.06zm-.32 1.62l-7.62 2.26 7.62 10.81 3.84-4.37-3.84-8.7zm11.64-58.27l-7.1-10.13-7.17 2.13c1.09 1.94 1.79 3.94 1.79 5.75 0 1.56-.51 2.75-1.4 3.5l6.72 9.57 6.71-2c-.83-1.69-1.4-3.44-1.4-5.07 0-1.81.7-3.06 1.79-3.75h.06zm-10.68 13.38l3.58 8.13 3.58-4.13-3.58-5.06-3.58 1.06zm0 14.7l3.58 5.06 3.58-1.06-3.58-8.13-3.58 4.13zm-4.35 7.44l6.97-2.07-3.26-4.69-4.67 5.44.96 1.32zm7.16-13.13l-3.84-8.7-7.61 2.26 7.61 10.81 3.78-4.37h.06zm-3.45-10.32l3.26-.94-6.59-9.38c-.32.13-.7.25-1.09.32l4.42 10zm-3.78-21.32l7.1-2.07-3.26-4.68-4.73 5.5c.32.43.64.81.96 1.25h-.07zm7.3-13.13l-3.84-8.69-7.62 2.25 7.62 10.81 3.77-4.37h.07zm-2.88 5.69l3.58 5.06 3.58-1.06-3.58-8.13-3.58 4.13zm8.06 3.75l7.61-2.25-7.61-10.82-3.78 4.38 3.84 8.69h-.06zm-.32 1.62l-3.26.94 7.03 10.01s.64-.19.97-.19l-4.74-10.82v.06zm3.33 21.51l-6.59 1.94 3.26 4.69 4.41-5.06c-.38-.5-.76-1-1.08-1.5v-.07zm-6.79 13.01l3.84 8.69 7.62-2.25-7.62-10.82-3.77 4.38h-.07zm3.46 10.31l-3.26.94 6.97 9.94s.64-.18.96-.18l-4.67-10.7zm3.26 21.26l-11 3.25 3.58 8.13 8.51-9.81c-.38-.5-.77-1-1.09-1.57zm-11 17.89l3.58 5.06 3.58-1.06-3.58-8.19-3.58 4.12v.07zm-.58.68l-4.54 5.26c.38.43.7.93 1.02 1.43l6.78-2-3.26-4.69zm-.96-1.31l-7.29-10.38v13.63c.94.62 1.82 1.33 2.62 2.13l4.67-5.38zm0-15.13l-4.48-10.19c-.89 0-1.85-.32-2.88-.82v13.13l7.3-2.12h.06zm-4.86-23.89l4.86-5.56-7.29-10.38v14.01c.89.56 1.72 1.18 2.49 2l-.06-.07zm4.8-20.69l-4.55-10.32c-.83-.06-1.79-.31-2.81-.81v13.26l7.29-2.13h.07zm-4.87-24.07l4.87-5.63-7.3-10.38v14.13c.83.56 1.67 1.19 2.43 1.94v-.06zm2.44-31.45c-.32.12-.71.25-1.09.25l4.48 10.13 3.26-.94-6.65-9.44zm3.96 11.81l3.59 8.13 3.58-4.12-3.58-5.07-3.59 1.06zm11.14-3.25l-6.66 1.94 3.27 4.69 4.47-5.13c-.38-.5-.76-1-1.08-1.5zm4.86 4.94c-.96-.62-1.92-1.37-2.75-2.25l-4.54 5.25 7.29 10.38v-13.38zm0 16.01l-7.29 2.12 4.86 11.13c.77.13 1.6.38 2.43.82v-14.07zm0 28.95c-1.02-.63-1.92-1.44-2.82-2.32l-4.54 5.19 7.3 10.38v-13.25h.06zm0 15.88l-7.29 2.12 4.79 11.01c.77.12 1.6.37 2.5.81v-13.94zm0 28.89c-1.02-.63-1.98-1.44-2.88-2.38l-8.89 10.25 3.84 8.69 7.93-2.31v-14.25zm-2.69 28.57c.83.06 1.73.37 2.69.81v-13.63l-7.36 2.13 4.67 10.63v.06zm-5.56-10.38l-3.27.94 6.78 9.63c.32-.13.64-.19 1.03-.25l-4.54-10.32zm-16.64 41.89c.96.63 1.85 1.31 2.62 2.19l18.49-21.32c-.38-.44-.7-.94-1.02-1.44l-20.09 5.94v14.69-.06zm0-16.19l19.32-5.69c-.96-1.82-1.53-3.69-1.53-5.38s.57-2.88 1.53-3.63l-6.91-9.81-6.91 2.06c.96 1.81 1.54 3.63 1.54 5.32 0 3.94-3.14 5.37-7.11 3.43v13.63l.07.07zM361.56 76.3c-.32.12-.71.25-1.09.31l4.48 10.13 3.26-.94-6.65-9.44v-.06zm.83 44.45l6.72 9.57 6.72-2c-.83-1.69-1.41-3.44-1.41-5.07 0-1.81.7-3.06 1.79-3.75l-7.17-10.13-7.16 2.13c1.09 1.94 1.79 3.94 1.79 5.75 0 1.56-.51 2.75-1.34 3.5h.06zm0 44.71l6.65 9.5 6.66-1.94c-.83-1.69-1.34-3.37-1.34-4.94 0-1.75.64-3 1.72-3.69l-7.1-10.06-7.1 2.06c1.09 1.88 1.73 3.88 1.73 5.63 0 1.56-.52 2.75-1.28 3.44h.06zm6.65 20.25l3.59-4.12-3.59-5.07-3.58 1.07 3.58 8.12zm0 2.38l-3.58 4.13 3.58 5.06 3.59-1.06-3.59-8.19v.06zm3.59-36.45l-3.59-8.19-3.58 4.12 3.58 5.07 3.59-1.06v.06zm-3.59-10.57l3.59-4.12-3.59-5.07-3.58 1.06 3.58 8.13zm3.59-34.32l-3.59-8.2-3.58 4.13 3.58 5.07 3.59-1.07v.07zm.96-.25l7.61-2.25-7.61-10.82-3.84 4.37 3.84 8.7zm-.32 1.62l-3.27.94 7.04 10.07s.64-.19.96-.19l-4.73-10.82zm3.33 21.51l-6.6 1.94 3.27 4.63 4.41-5.07c-.38-.5-.76-1-1.08-1.5zm-6.79 13l3.84 8.7 7.62-2.26-7.62-10.81-3.84 4.37zm3.46 10.38l-3.27.94 6.98 9.94s.64-.18.96-.18l-4.67-10.7zm3.26 21.32l-6.53 1.94 3.27 4.63 4.35-5c-.39-.5-.77-1-1.09-1.57zm-6.72 12.95l3.84 8.69 7.62-2.25-7.62-10.82-3.84 4.38zm3.46 10.38l-3.27.93 6.79 9.63c.32-.12.64-.18 1.02-.25l-4.54-10.38v.07zm1.15 14.63c0-1.69.58-2.88 1.54-3.63l-6.92-9.82-6.91 2.01c.96 1.81 1.54 3.68 1.54 5.37 0 2.57-1.34 4.13-3.39 4.32l8.7 19.88 8.7-10.07c-2.04-2.5-3.39-5.5-3.39-8.13l.13.07zm-13.05-12.76l6.78-2-3.26-4.69-4.55 5.25c.39.44.71.94 1.03 1.44zm6.97-13.07l-3.84-8.69-7.61 2.25 7.61 10.82 3.84-4.38zm-3.45-10.37l3.26-.94-6.53-9.32c-.32.19-.7.25-1.09.31l4.36 9.95zm-3.72-21.14l6.98-2.06-3.26-4.69-4.68 5.44c.39.44.71.87.96 1.31zm7.23-13.13l-3.84-8.69-7.61 2.25 7.61 10.82 3.84-4.38zm-3.45-10.38l3.26-.94-6.59-9.37c-.32.12-.7.25-1.09.31l4.42 10zm-3.78-21.38l7.04-2.06-3.26-4.69-4.74 5.44c.32.43.64.81.96 1.25v.06zm7.3-13.13l-3.84-8.69-7.62 2.25 7.62 10.82 3.84-4.38zm-2.88-8.94l3.58 8.13 3.59-4.13-3.59-5.06-3.58 1.06zm11.13-3.25l-6.65 1.94 3.26 4.62 4.42-5.12c-.39-.51-.77-1.01-1.09-1.51l.06.07zm4.87 4.94c-.96-.63-1.92-1.38-2.75-2.32l-4.55 5.25 7.3 10.38V89.61v.07zm0 16l-7.3 2.13 4.86 11.13c.77.12 1.61.37 2.44.81v-14.13.06zm0 28.95c-1.03-.62-1.92-1.44-2.82-2.31l-4.48 5.19 7.3 10.38v-13.26zm0 15.88l-7.3 2.13 4.86 11c.77.13 1.61.38 2.5.82v-14.01l-.06.06zm0 28.89a19.79 19.79 0 01-2.88-2.38l-4.48 5.13 7.29 10.38V179.4h.07zm0 15.76l-7.3 2.12 4.67 10.69c.83.07 1.73.38 2.63.82v-13.63zm0 28.51c-.96-.63-1.86-1.32-2.63-2.19l-9.08 10.44 3.84 8.69 7.93-2.31v-14.7l-.06.07zm0 29.82v-13.63l-7.36 2.13 4.67 10.63c.83.06 1.73.37 2.62.81l.07.06zm-4.74-.62c.32-.13.64-.19 1.02-.25l-4.54-10.38-3.26.93 6.78 9.63v.07zm-4.09-12.01l-3.59-8.19-3.58 4.13 3.58 5.06 3.59-1.06v.06zm-11.27 3.31l6.79-2-3.27-4.69-4.54 5.26c.38.43.7.93 1.02 1.43zm-4.73-4.75c.96.63 1.85 1.32 2.62 2.19l4.67-5.38-7.29-10.44v13.63zm0-15.19l7.93 11.25 3.84-4.37-9.08-20.76c-.84-.06-1.73-.38-2.63-.81v14.63l-.06.06zm0-29.51c.96.62 1.85 1.31 2.62 2.19l4.67-5.38-7.36-10.44v13.63h.07zm0-16.2l7.29-2.12-4.48-10.19c-.89 0-1.85-.32-2.88-.82v13.2l.07-.07zm0-28.01c.89.57 1.73 1.25 2.49 2l4.8-5.56-7.36-10.44v14h.07zm0-16.57l7.29-2.12-4.54-10.32c-.83-.06-1.79-.31-2.82-.81v13.25h.07zm0-28.13c.83.56 1.66 1.19 2.43 1.94l4.86-5.63-7.36-10.44v14.13h.07zm0-16.7l7.29-2.12-4.54-10.44c-.83-.07-1.79-.38-2.75-.82v13.38zm-21.18-27.57c-.32.13-.71.25-1.09.25l4.48 10.13 3.26-.94-6.65-9.44zm7.55 121.05l3.58-1.06-3.58-8.2-3.58 4.13 3.58 5.07v.06zm-4.16-4.38l-4.54 5.25c.38.44.7.94 1.02 1.44l6.78-2-3.26-4.69zm-2.56-72.15l6.72 9.56 6.72-2c-.83-1.68-1.41-3.44-1.41-5.06 0-1.81.7-3.06 1.79-3.75l-7.17-10.13-7.16 2.12c1.09 1.94 1.79 3.94 1.79 5.76 0 1.56-.51 2.75-1.41 3.5h.13zm10.3 16.25l-3.58-5.06-3.58 1.06 3.58 8.19 3.58-4.12v-.07zm-7.16 10.63l3.58 5.07 3.58-1.06-3.58-8.2-3.58 4.13v.06zm7.16-40.82l-3.58-8.2-3.58 4.13 3.58 5.06 3.58-1.06v.07zm.9-.25l7.61-2.26-7.61-10.81-3.84 4.37 3.84 8.7zm-.32 1.62l-3.27.94 7.04 10.07s.64-.19.96-.19l-4.73-10.82zm3.33 21.51l-6.6 1.94 3.27 4.69 4.41-5.07c-.38-.5-.77-1-1.08-1.5V115zm-6.79 13l3.84 8.7 7.62-2.26-7.62-10.81-3.84 4.37zm3.52 10.32l-3.26.94 6.97 9.94s.64-.19.96-.19l-4.67-10.69zm1.15 15.01c0-1.75.64-3 1.73-3.69l-7.1-10.07-7.1 2.07c1.08 1.87 1.72 3.87 1.72 5.62 0 1.57-.51 2.75-1.34 3.44l10.88 15.44 4.35-5c-1.92-2.44-3.2-5.37-3.2-7.88l.06.07zm-4.67 19.25l3.84 8.7 7.62-2.26-7.62-10.81-3.84 4.37zm3.52 10.32l-3.26.94 6.78 9.63c.32-.13.64-.19 1.02-.25l-1.34-3.07-3.2-7.31v.06zm-.57-16.07l-11.01-15.69c-.32.19-.7.25-1.09.31l8.58 19.51 3.58-4.13h-.06zm-11.46-26.57l6.98-2.06-3.27-4.69-4.28 4.94-.39.5c.39.43.71.87.96 1.31zm7.23-13.13l-3.84-8.69-7.61 2.25 7.61 10.81 3.84-4.37zm-3.52-10.32l3.27-.94-6.59-9.37c-.36.14-.72.24-1.09.31l4.41 10zm-3.77-21.38l7.04-2.06-3.27-4.69-4.28 4.94-.45.56c.32.44.64.81.96 1.25zm7.29-13.13l-3.84-8.69-7.61 2.25 7.61 10.82 3.84-4.38zm-2.88-8.94l3.59 8.19 3.58-4.13-3.58-5.06-3.59 1.06v-.06zm11.14-3.25l-6.66 1.93 3.27 4.69 4.47-5.12c-.38-.5-.76-1-1.08-1.5zm4.86 4.94c-.96-.63-1.92-1.38-2.75-2.32l-4.1 4.69-.51.56 7.36 10.45V75.05zm0 16l-7.29 2.13 3.07 7.06 1.79 4.07c.77.12 1.6.37 2.43.81V90.99v.06zm0 28.95c-1.02-.62-1.92-1.44-2.82-2.31l-4.03 4.62-.51.57 7.36 10.44V120zm0 15.88l-7.29 2.13 3.07 7.06 1.73 4c.86.15 1.7.43 2.49.82v-14.01zm0 28.89c-1.02-.69-1.98-1.5-2.88-2.38l-4.48 5.13 7.36 10.44v-13.19zm0 15.76l-7.29 2.12 3.07 7.07 1.6 3.62c.83.06 1.72.38 2.62.82v-13.63zm0 28.51c-3.97-2.57-7.1-7.51-7.1-11.45 0-1.68.57-2.87 1.53-3.62l-6.91-9.82-6.91 2c.96 1.82 1.54 3.69 1.54 5.38s-.58 2.88-1.54 3.63l19.33 27.51v-13.63h.06zm-2.62 29.01c.83.06 1.72.37 2.62.81v-14.69l-20.09-28.64c-.32.13-.64.19-1.03.25l18.5 42.2v.07zm-22.21-57.96c.96.62 1.86 1.31 2.63 2.19l4.67-5.38-7.3-10.44v13.63zm0-15.2l7.94 11.26 3.84-4.38-5.19-11.82-3.71-8.44c-.89 0-1.85-.31-2.88-.81v14.19zm0-29.07c.9.56 1.73 1.25 2.5 2l4.8-5.56-7.3-10.45v14.01zm0-16.57l7.36-2.13-4.54-10.31c-.83-.06-1.79-.31-2.82-.81v13.25zm0-28.14c.84.57 1.67 1.19 2.43 1.94l4.87-5.62-7.3-10.45v14.13zm0-16.69l7.36-2.13-4.54-10.44c-.83-.06-1.79-.37-2.75-.81v13.38h-.07zm-21.18-27.57c-.32.12-.7.25-1.09.25l4.48 10.13 3.27-.94-6.66-9.44zm12.03 30.26l7.62-2.25-7.62-10.82-3.84 4.38 3.84 8.69zm-4.48-7.88l-3.58 4.13 3.58 5.06 3.59-1.06-3.59-8.19v.06zm4.16 9.57l-3.26.94 7.04 10.06s.64-.19.96-.19l-4.74-10.81zm1.15 15.13c0-1.81.71-3.07 1.8-3.75l-7.17-10.13-7.17 2.12c1.09 1.94 1.79 3.94 1.79 5.76 0 1.56-.51 2.75-1.4 3.5L321.31 107l4.41-5.07c-1.92-2.44-3.2-5.38-3.2-7.94v-.06zm-4.67 19.38l3.84 8.69 7.62-2.25-7.62-10.82-3.84 4.38zm3.52 10.32l-3.26.94 6.97 9.94s.64-.19.96-.19l-4.67-10.69zm-.57-1.38l-3.59-8.19-3.58 4.13 3.58 5.06 3.59-1.06v.06zm0-14.63l-11.07-15.75c-.32.12-.71.25-1.09.31l6.91 15.82 1.66 3.81 3.59-4.13v-.06zM309.21 80.8l7.04-2.07-3.26-4.69-4.74 5.44c.32.44.64.82.96 1.26v.06zm7.3-13.13l-.77-1.69-3.07-7-7.62 2.25 7.62 10.81 3.84-4.37zm-2.88-8.94l1.92 4.37 1.66 3.82 3.59-4.13-3.59-5.06-3.58 1.06v-.06zm11.13-3.25l-6.65 1.93 3.26 4.69 4.48-5.12c-.38-.5-.77-1-1.09-1.5zm4.87 4.93c-.96-.62-1.92-1.37-2.75-2.31l-4.55 5.25 7.3 10.45V60.41zm0 16.01l-7.36 2.13 4.86 11.13c.77.12 1.6.37 2.43.81V76.36l.07.06zm0 28.95c-1.03-.62-1.92-1.44-2.82-2.31l-4.54 5.19 7.29 10.44v-13.26l.07-.06zm0 15.88l-7.36 2.13 4.8 11c.77.13 1.6.38 2.49.81v-14l.07.06zm0 28.89c-3.97-2.57-7.11-7.51-7.11-11.44 0-1.75.64-3.01 1.73-3.69l-7.1-10.07-7.11 2.06c1.09 1.88 1.73 3.88 1.73 5.63 0 1.56-.51 2.75-1.34 3.44l19.13 27.2v-13.19l.07.06zM327 178.71c.84.06 1.73.38 2.63.81v-14.69l-19.9-28.26c-.32.19-.71.25-1.09.31l18.3 41.77.06.06zm-17.66-53.02l6.98-2.06-3.27-4.69-4.67 5.38c.36.4.68.84.96 1.31v.06zm-4.54-4.44c.89.56 1.73 1.25 2.49 2l4.8-5.56-7.36-10.44v14h.07zm0-15.57l7.93 11.26 3.84-4.38-.77-1.69-8.19-18.63c-.83-.06-1.79-.31-2.81-.81v14.32-.07zm0-29.2c.83.57 1.66 1.19 2.43 1.94l4.86-5.63-7.36-10.44v14.13h.07zm0-16.69l7.36-2.13-4.55-10.44c-.83-.06-1.79-.37-2.75-.81v13.38h-.06zm-21.18-27.57c-.32.12-.71.25-1.09.25l8.64 19.69 3.58-4.12-11.13-15.82zm11.13 30.51l-3.58-8.19-3.58 4.12 3.58 5.07 3.58-1.06v.06zm-2.69 2.37l7.04 10.07s.64-.19.96-.19l-2.49-5.69-2.24-5.12-3.27.93zm-.19-11.31l3.84 8.69 7.62-2.25-7.62-10.82-3.84 4.38zm11.78-8.07c-.96-.62-1.92-1.37-2.75-2.31l-4.55 5.25 7.3 10.44V45.72zm0 16.01l-7.3 2.12 4.87 11.13c.76.13 1.59.38 2.43.82V61.67v.06zm0 28.95c-3.97-2.57-7.11-7.51-7.11-11.45 0-1.81.71-3.06 1.8-3.75l-7.17-10.13-7.17 2.13c1.09 1.94 1.79 3.94 1.79 5.75 0 1.57-.51 2.75-1.4 3.5l19.19 27.26V90.74l.07-.06zm-2.5 29.01c.87.15 1.71.42 2.5.81v-15l-19.97-28.33c-.32.13-.7.25-1.09.31l18.56 42.27v-.06zM283.23 66.1l7.04-2.06-3.26-4.69-4.74 5.44c.32.44.64.81.96 1.25v.06zm-4.48-4.37c.84.56 1.67 1.19 2.44 1.94l4.86-5.63-7.36-10.44v14.13h.06zm0-15.63l7.94 11.25 3.84-4.38-8.96-20.5c-.83-.07-1.79-.38-2.75-.82V46.1h-.07zm-3.64 14.19c.77.12 1.6.37 2.43.81V45.97l-19.97-28.45c-.32.13-.7.25-1.08.25l18.62 42.46v.06z" fill="url(#b)"/></svg>