<svg width="24" height="22" fill="none" xmlns="http://www.w3.org/2000/svg"><path d="M18.17 6.72c-.44-.26-1.01-.26-1.51 0l-3.51 2.15-2.38 1.37-3.44 2.16c-.44.26-1.01.26-1.51 0l-2.69-1.7c-.44-.26-.75-.78-.75-1.37V6.07c0-.53.25-1.05.75-1.37l2.69-1.64c.44-.26 1.01-.26 1.51 0l2.69 1.7c.44.26.75.78.75 1.37v2.16l2.38-1.44V4.63c0-.52-.25-1.04-.75-1.37L7.39.19c-.44-.26-1-.26-1.5 0L.75 3.32c-.5.27-.75.79-.75 1.31v6.14c0 .52.25 1.04.75 1.37l5.07 3.07c.44.26 1.01.26 1.51 0l3.44-2.09 2.38-1.44 3.45-2.09c.44-.26 1-.26 1.5 0l2.7 1.63c.44.26.75.79.75 1.37v3.27c0 .52-.25 1.04-.75 1.37l-2.63 1.63c-.44.26-1.01.26-1.51 0l-2.69-1.63c-.44-.26-.75-.78-.75-1.37v-2.09l-2.38 1.44v2.15c0 .52.25 1.04.75 1.37l5.07 3.07c.44.26 1.01.26 1.51 0l5.07-3.07c.44-.26.76-.78.76-1.37v-6.2c0-.52-.26-1.05-.76-1.37l-5.07-3.07z" fill="#8247E5"/></svg>