<svg width="30" height="20" fill="none" xmlns="http://www.w3.org/2000/svg"><path d="M27.79 0H1.2A1.7 1.7 0 00-.51 1.7v15.92c0 .94.76 1.71 1.71 1.71h26.59c.95 0 1.71-.77 1.71-1.71V1.7c0-.94-.76-1.7-1.71-1.7z" fill="#F9F9F9"/><path d="M27.79 0c.95 0 1.71.76 1.71 1.7v15.92c0 .94-.76 1.71-1.71 1.71H1.2c-.95 0-1.71-.77-1.71-1.71V1.7C-.51.76.25 0 1.2 0h26.59z" stroke="#000" stroke-width=".8" stroke-linejoin="round"/><path d="M5.39 12.16l-.27-1.31c-.01-.09-.04-.17-.06-.26a.865.865 0 00-.07-.17c-.03-.04-.06-.08-.1-.1a.282.282 0 00-.15-.04h-.19l-.64 1.88H2.3l1.82-5.35h2.14c.74 0 1.26.13 1.53.37.27.25.33.61.16 1.1-.06.2-.16.38-.27.55-.23.31-.53.57-.88.73-.17.09-.35.16-.54.21l-.01.03c.13.07.24.16.33.28.04.06.08.13.11.21.04.08.07.17.1.28l.42 1.59H5.39zm.77-3.65c.06-.18.05-.32-.02-.42-.07-.11-.23-.16-.46-.16h-.33l-.42 1.22h.29c.13 0 .24-.02.35-.06.1-.03.19-.08.27-.14.08-.07.15-.13.2-.21.05-.08.09-.15.12-.23zm3.77 3.65l.2-.59h-.02c-.07.07-.15.14-.24.22a2.274 2.274 0 01-.7.39c-.14.05-.3.08-.47.08-.23 0-.42-.04-.55-.13a.67.67 0 01-.29-.33c-.05-.14-.07-.31-.05-.51.03-.22.08-.43.15-.64l.79-2.31h1.59l-.75 2.19c-.06.19-.07.34-.03.43.04.09.13.13.26.13.16 0 .29-.05.4-.15.12-.1.2-.25.27-.43l.73-2.17h1.59l-1.3 3.82H9.93zm8.09-3.58a2.616 2.616 0 01-1.06 1.34 3.6 3.6 0 01-.84.39c-.33.09-.66.14-1 .13h-.5l-.58 1.72h-1.61l1.82-5.35h2.19c.35 0 .65.03.9.1.25.06.44.16.58.3.14.14.21.32.23.55.02.22-.02.49-.13.82zm-1.73.05c.05-.12.06-.23.05-.31 0-.08-.04-.15-.09-.21a.564.564 0 00-.2-.11c-.09-.02-.19-.03-.28-.03h-.31l-.44 1.32h.36c.13 0 .24-.02.34-.05.19-.06.35-.18.45-.34.05-.08.09-.17.12-.27zm3.12 3.53l.2-.58h-.01c-.19.21-.41.38-.64.5-.23.12-.49.18-.76.18-.19 0-.35-.03-.47-.1a.616.616 0 01-.28-.25.671.671 0 01-.08-.37c0-.14.03-.3.08-.46.05-.14.12-.28.2-.42.09-.15.21-.28.34-.39.16-.13.34-.23.53-.31.21-.09.46-.15.76-.19l.99-.12c.02-.06.03-.12.01-.18a.222.222 0 00-.08-.13.556.556 0 00-.17-.09.986.986 0 00-.24-.03c-.12 0-.25.01-.38.04-.14.02-.27.04-.39.08-.13.03-.25.07-.37.12-.12.04-.23.08-.33.13l.35-1.03a4.784 4.784 0 01.81-.22c.15-.02.3-.05.45-.06.14-.02.28-.03.42-.03.34 0 .62.04.83.11.21.08.37.19.46.34.09.15.13.34.12.57-.02.22-.08.48-.18.79l-.71 2.1h-1.46zm.04-1.67c-.13.02-.24.06-.34.12-.06.04-.11.1-.15.16-.04.07-.06.14-.07.22 0 .04.01.08.03.12.02.03.05.06.09.08.05.02.11.04.16.03a.672.672 0 00.47-.18c.15-.13.26-.29.32-.48l.05-.15-.56.08zm4.77 1.78c-.16.22-.32.43-.49.63-.17.2-.36.38-.57.54-.2.16-.42.28-.66.38-.25.09-.52.14-.79.14-.14-.01-.28-.02-.42-.04-.08-.01-.16-.02-.24-.04-.08-.02-.15-.05-.23-.08l.41-1.19c.03.03.07.06.11.07.05.03.1.05.15.06.1.04.2.06.3.06a.864.864 0 00.71-.35l.22-.3-.3-3.81h1.76l-.17 1.85c0 .05 0 .11-.01.18-.01.12-.03.24-.04.37-.01.05-.02.1-.04.14h.02c.04-.09.1-.19.16-.31.07-.12.15-.24.23-.38l1.08-1.85h1.55l-2.74 3.93z" fill="#004A8C"/></svg>