<svg width="24" height="24" fill="none" xmlns="http://www.w3.org/2000/svg"><defs><linearGradient x1="21.778" y1="26.884" x2="8.522" y2="-5.512" id="b" gradientUnits="userSpaceOnUse"><stop stop-color="#00FFA3"/><stop offset="1" stop-color="#DC1FFF"/></linearGradient><linearGradient x1="15.982" y1="30.745" x2="2.726" y2="-1.651" id="c" gradientUnits="userSpaceOnUse"><stop stop-color="#00FFA3"/><stop offset="1" stop-color="#DC1FFF"/></linearGradient><linearGradient x1="18.862" y1="28.827" x2="5.605" y2="-3.57" id="d" gradientUnits="userSpaceOnUse"><stop stop-color="#00FFA3"/><stop offset="1" stop-color="#DC1FFF"/></linearGradient><clipPath id="a"><path transform="matrix(1 0 0 -1 0 24)" fill="#fff" fill-opacity="0" d="M0 0h24v24H0z"/></clipPath></defs><path d="M0 24h24V0H0z"/><g clip-path="url(#a)"><path d="M3.89 5.68c.15.18.35.29.56.29H23.6c.35 0 .53-.54.28-.85L20.1.29a.711.711 0 00-.56-.29H.39C.04 0-.14.53.11.85l3.78 4.83z" fill="url(#b)"/><path d="M3.89 23.7c.15.19.35.3.56.3H23.6c.35 0 .53-.54.28-.86l-3.78-4.83c-.15-.18-.35-.29-.56-.29H.39c-.35 0-.53.54-.28.85l3.78 4.83z" fill="url(#c)"/><path d="M20.1 14.75c-.15.18-.35.29-.56.29H.39c-.35 0-.53-.54-.28-.85l3.78-4.83c.15-.19.35-.29.56-.29H23.6c.35 0 .53.53.28.85l-3.78 4.83z" fill="url(#d)"/></g></svg>