<svg width="34" height="15" fill="none" xmlns="http://www.w3.org/2000/svg"><path d="M1.27 8.33h11.26c1.03 0 1.87-.38 1.87-.83V.83c0-.46-.84-.83-1.87-.83H1.27C.24 0-.6.37-.6.83V7.5c0 .45.84.83 1.87.83zm0 6.67h11.26c1.03 0 1.87-.38 1.87-.84v-3.33c0-.46-.84-.83-1.87-.83H1.27c-1.03 0-1.87.37-1.87.83v3.33c0 .46.84.84 1.87.84zm18.76 0h11.25c1.03 0 1.87-.38 1.87-.84V7.5c0-.46-.84-.84-1.87-.84H20.03c-1.04 0-1.88.38-1.88.84v6.66c0 .46.84.84 1.88.84zM18.15.83v3.33c0 .46.84.84 1.88.84h11.25c1.03 0 1.87-.38 1.87-.84V.83c0-.46-.84-.83-1.87-.83H20.03c-1.04 0-1.88.37-1.88.83z" fill="#FFF"/></svg>