<svg width="21" height="18" fill="none" xmlns="http://www.w3.org/2000/svg"><path d="M9.5 4.27v5.97h3.9V9.19h-2.82V4.27H9.5z" fill="#BBBEC1"/><path d="M20 9.06c0-5-4.17-9.06-9.3-9.06-4.59 0-8.41 3.29-9.15 7.55H.06l2.57 4.33 2.64-4.33H3.73C4.08 6 4.97 4.62 6.24 3.62a7.24 7.24 0 014.47-1.53c3.93 0 7.14 3.13 7.14 6.97 0 3.32-2.44 6.1-5.59 6.8V18c4.36-.73 7.74-4.46 7.74-8.94zM1.63 17.05l.69-.71c.44-.47.74-.83.91-1.07.17-.23.25-.51.25-.82 0-.46-.16-.83-.47-1.09-.31-.27-.74-.4-1.3-.4-.52 0-.94.16-1.26.47-.31.32-.47.72-.45 1.17v.03h1.15c0-.26.05-.42.15-.56.1-.15.24-.23.41-.23.2 0 .35.06.44.17.1.11.15.26.15.45 0 .14-.05.29-.14.47-.13.22-.27.43-.45.62L.1 17.21v.76h3.49v-.91H1.64l-.01-.01z" fill="#BBBEC1"/><path d="M6.82 13.06H5.67v-.02l-2.03 3.18.05.71h1.98v1.04h1.15v-1.04h.53v-.86h-.53v-3.01zm-1.14 3.01H4.67l.87-1.4.1-.15h.04v1.55zm5.5 1.9v-2.12c0-.16.01-.3-.01-.43-.05-.34-.14-.61-.3-.8-.22-.26-.52-.39-.91-.39a.972.972 0 00-.53.13c-.16.1-.33.22-.4.39v-1.76h-1.2v4.98h1.21v-2.68c0-.05.11-.1.19-.13a.71.71 0 01.29-.05c.18 0 .31.05.39.16.09.1.13.3.13.58v2.12h1.14z" fill="#BBBEC1"/></svg>