<svg width="42" height="24" fill="none" xmlns="http://www.w3.org/2000/svg"><path d="M-.17 17.32h.32l-.3 1.22c-.04.18-.03.32.03.41.06.09.17.14.33.14s.3-.05.4-.14c.1-.09.18-.23.22-.41l.29-1.22h.32l-.3 1.25c-.06.27-.18.48-.35.61-.16.14-.38.21-.65.21s-.45-.07-.55-.2c-.1-.14-.12-.34-.06-.61l.3-1.26zm1.57 2.01l.5-2.09.95 1.23c.02.03.05.07.07.11.03.04.05.08.08.13l.33-1.39h.3l-.5 2.09-.97-1.26-.07-.1a.338.338 0 01-.06-.12l-.34 1.4H1.4zm2.2 0l.48-2.01h.32l-.48 2.01H3.6zm.78 0l.48-2.01h1.09l-.07.28h-.77l-.12.5h.78l-.07.28h-.78l-.22.95h-.32zm1.45 0l.47-2.01h.32l-.48 2.01h-.31zm.77 0l.48-2.01h1.09l-.06.28h-.78l-.12.5h.78l-.07.29h-.78l-.15.65h.77l-.07.29H6.6zm1.46 0l.48-2.01h.43c.28 0 .47.01.58.04a.614.614 0 01.44.49c.02.14.01.3-.03.47-.04.18-.11.34-.2.48a1.103 1.103 0 01-.67.48c-.11.03-.29.05-.51.05h-.52zm.39-.3h.27c.14 0 .26-.01.34-.03.08-.02.15-.05.21-.1.09-.06.17-.14.23-.24.06-.1.1-.21.13-.34.03-.13.04-.24.03-.34a.484.484 0 00-.11-.24.354.354 0 00-.18-.1c-.07-.02-.19-.03-.35-.03h-.23l-.34 1.42zm2.98-.6l-.22.9h-.3l.48-2.01h.49c.14 0 .24.01.31.02.06.02.11.04.15.08.05.05.09.11.1.19.02.08.01.17-.01.26-.02.1-.06.19-.11.27-.06.08-.12.14-.19.19-.06.03-.13.06-.2.08-.07.01-.18.02-.32.02h-.18zm.08-.27h.08c.18 0 .3-.02.37-.06.07-.04.12-.11.14-.21.03-.11.01-.19-.04-.23-.05-.04-.16-.06-.33-.06h-.08l-.14.56zm2 1.17l-.1-.52h-.77l-.35.52h-.34l1.45-2.09.45 2.09h-.34zm-.68-.79h.54l-.09-.46c0-.03-.01-.07-.01-.1v-.13c-.02.05-.04.09-.07.13a.88.88 0 01-.06.1l-.31.46zm1.48.79l.22-.92-.4-1.09h.33l.25.69c.01.02.01.04.02.07l.03.09.06-.09c.02-.03.04-.06.06-.08l.58-.68h.32l-.93 1.09-.22.92h-.32zm3.04-.99c0-.02 0-.06.01-.13.01-.06.01-.11.02-.15-.02.05-.04.09-.07.14a.42.42 0 01-.09.14l-.77 1.08-.25-1.1c0-.04-.02-.09-.02-.13-.01-.04-.01-.08-.01-.12-.01.04-.03.08-.04.13-.01.05-.04.1-.06.15l-.45.99h-.29l.96-2.1.27 1.27c.01.02.01.05.02.1 0 .04.01.1.02.17.04-.06.08-.13.14-.22.02-.02.03-.04.04-.05l.87-1.27-.03 2.1h-.3l.03-1zm.53.99l.48-2.01h1.09l-.07.28h-.77l-.12.5h.77l-.07.29h-.77l-.15.65h.77l-.07.29h-1.09zm1.45 0l.5-2.09.95 1.23c.03.03.05.07.08.11.02.04.05.08.08.13l.33-1.39h.29l-.49 2.09-.97-1.26-.08-.1-.06-.12-.33 1.4h-.3zm3.25-1.74l-.41 1.74h-.32l.41-1.74h-.52l.07-.28h1.36l-.07.28h-.52zm.34 1.34l.28-.12c.01.09.03.16.09.2.05.05.13.07.23.07.09 0 .17-.02.24-.08.07-.05.11-.12.13-.21.03-.12-.04-.23-.2-.32-.03-.01-.04-.02-.06-.03-.19-.11-.31-.2-.36-.29a.432.432 0 01-.03-.32c.04-.17.13-.3.26-.4.13-.1.29-.16.46-.16.15 0 .26.03.35.09.08.05.13.14.14.24l-.28.13a.284.284 0 00-.09-.14.241.241 0 00-.15-.04c-.09 0-.16.02-.22.07-.06.04-.1.1-.12.18-.03.12.06.24.25.34.01.01.03.02.03.02.17.09.29.18.34.27.05.09.06.2.03.33-.05.19-.14.34-.28.46-.15.11-.32.17-.52.17-.16 0-.29-.04-.38-.12-.1-.08-.15-.2-.14-.34zm2.35.4l.48-2.01h.32l-.48 2.01h-.32zm.78 0l.49-2.09.95 1.23c.03.03.05.07.08.11.02.04.05.08.08.13l.33-1.39h.3l-.5 2.09-.97-1.26-.08-.1-.06-.12-.33 1.4h-.29zm3.24-1.74l-.41 1.74h-.32l.41-1.74h-.51l.06-.28h1.36l-.07.28h-.52zm.35 1.74l.48-2.01h1.09l-.06.28h-.77l-.12.5h.77l-.07.29h-.77l-.16.65h.78l-.07.29h-1.1zm1.97-.9l-.22.9h-.29l.47-2.02h.45c.13 0 .23.01.29.03.07.01.13.04.17.08.05.05.08.11.09.19.02.08.01.16-.01.26-.04.16-.1.29-.2.38a.69.69 0 01-.38.16l.46.92h-.36l-.44-.9h-.03zm.08-.26h.06c.17 0 .28-.02.35-.06a.32.32 0 00.13-.21c.03-.11.02-.19-.03-.24-.05-.04-.16-.07-.32-.07h-.06l-.13.58zm.94 1.16l.48-2.01h1.09l-.06.28h-.77l-.12.5h.77l-.07.28h-.77l-.23.95h-.32zm2.64 0l-.1-.52h-.78l-.35.52h-.33l1.44-2.09.45 2.09h-.33zm-.7-.79h.55l-.09-.46c-.01-.03-.01-.07-.01-.1-.01-.04-.01-.08-.01-.13-.02.05-.04.09-.06.13-.02.04-.04.07-.06.1l-.32.46zm3.11-.73a.725.725 0 00-.55-.24c-.22 0-.41.07-.58.21-.17.14-.27.33-.33.55-.05.22-.03.4.07.54.09.14.25.21.44.21.12 0 .23-.02.35-.06.11-.04.23-.11.35-.19l-.09.37c-.1.06-.21.11-.32.14-.11.03-.22.04-.34.04-.14 0-.28-.02-.39-.07a.725.725 0 01-.43-.57c-.02-.13-.01-.27.03-.42.03-.15.09-.28.17-.41.08-.13.19-.25.31-.34.12-.1.24-.18.38-.23.14-.05.28-.07.43-.07a.86.86 0 01.58.2l-.08.34zm.03 1.52l.48-2.01h1.09l-.07.28h-.77l-.12.5h.77l-.06.29h-.78l-.15.65h.77l-.07.29h-1.09zm-5.81-3.76h-2.19l3.04-11h2.19l-3.04 11zM30.76 4.92c-.15-.21-.38-.32-.7-.32H18.02l-.59 2.16h10.95l-.64 2.3H16.79l-1.82 6.56h2.19l1.22-4.4h9.85c.31 0 .6-.11.86-.32.27-.21.45-.47.54-.78l1.22-4.4c.09-.33.06-.59-.09-.8zM13.7 14.88c-.12.43-.52.74-.97.74H1.43c-.31 0-.53-.11-.68-.32-.15-.21-.19-.47-.1-.77L3.41 4.6H5.6l-2.46 8.87h8.76l2.46-8.87h2.19L13.7 14.88z" fill="#BBBEC1"/><path d="M38.73 4.59l2.77 5.51-5.83 5.51 3.06-11.02z" fill="#098041"/><path d="M36.78 4.59l2.77 5.51-5.83 5.51 3.06-11.02z" fill="#E97626"/></svg>