<svg width="24" height="24" fill="none" xmlns="http://www.w3.org/2000/svg"><defs><clipPath id="a"><path fill="#fff" fill-opacity="0" d="M0 0h24v24H0z"/></clipPath></defs><path d="M0 0h24v24H0z"/><g clip-path="url(#a)"><path d="M12 24c6.65 0 12-5.35 12-12 0-6.66-5.35-12-12-12C5.34 0 0 5.34 0 12c0 6.65 5.34 12 12 12z" fill="#2775CA"/><path d="M15.29 13.9c0-1.75-1.04-2.35-3.15-2.6-1.5-.2-1.8-.6-1.8-1.3 0-.71.5-1.15 1.5-1.15.91 0 1.41.3 1.66 1.05.04.15.19.24.34.24h.8c.2 0 .36-.14.36-.34v-.05c-.21-1.11-1.11-1.96-2.25-2.05V6.5c0-.21-.16-.35-.41-.41h-.75c-.2 0-.34.16-.4.41v1.15c-1.5.2-2.44 1.2-2.44 2.45 0 1.65 1 2.3 3.09 2.55 1.41.25 1.85.55 1.85 1.35s-.69 1.35-1.65 1.35c-1.29 0-1.75-.55-1.9-1.3-.05-.2-.2-.3-.35-.3h-.85c-.19 0-.35.15-.35.35v.05c.2 1.25 1 2.14 2.66 2.39v1.21c0 .2.14.35.39.4h.75c.2 0 .36-.15.4-.4v-1.21c1.5-.25 2.5-1.29 2.5-2.64z" fill="#FFF"/><path d="M9.45 19.15C5.54 17.75 3.54 13.4 5 9.54c.75-2.1 2.4-3.69 4.45-4.44.2-.1.3-.25.3-.51V3.9c0-.21-.1-.36-.3-.4-.05 0-.16 0-.2.04C4.5 5.04 1.9 10.1 3.4 14.85c.89 2.8 3.05 4.94 5.85 5.85.2.1.4 0 .45-.2.05-.05.05-.1.05-.21v-.69c0-.15-.16-.35-.3-.45zm5.3-15.61c-.21-.09-.41 0-.46.21-.04.05-.04.09-.04.2v.7c0 .2.15.39.29.5 3.91 1.39 5.91 5.75 4.46 9.6-.75 2.1-2.41 3.7-4.46 4.45-.2.09-.29.25-.29.5v.7c0 .2.09.35.29.4.05 0 .16 0 .21-.05 4.75-1.5 7.34-6.55 5.84-11.3a9.047 9.047 0 00-5.84-5.91z" fill="#FFF"/></g></svg>