<svg width="22" height="20" fill="none" xmlns="http://www.w3.org/2000/svg"><path d="M17.52 0H4.17L0 9l10.85 10.84L21.7 9l-4.18-9z" fill="#39A589"/><path d="M17.96 8.76c0-.92-2.49-1.76-5.79-1.92V5.46h3.89V2.61H5.57v2.85h3.88v1.38c-3.29.16-5.79 1-5.79 1.92 0 .93 2.5 1.77 5.79 1.93v5.15h2.72v-5.15c3.3-.16 5.79-1 5.79-1.93zm-7.11 1.08c-3.15 0-5.72-.54-5.72-1.23 0-.61 1.83-1.08 4.4-1.23v2.15c.44 0 .88.08 1.39.08.44 0 .95 0 1.32-.08V7.38c2.5.15 4.4.62 4.4 1.23-.07.62-2.64 1.23-5.79 1.23z" fill="#FBFDFF"/></svg>